<?xml version="1.0" encoding="UTF-8" standalone="no"?>
<!-- Created with Inkscape (http://www.inkscape.org/) -->

<svg
   xmlns:dc="http://purl.org/dc/elements/1.1/"
   xmlns:cc="http://creativecommons.org/ns#"
   xmlns:rdf="http://www.w3.org/1999/02/22-rdf-syntax-ns#"
   xmlns:svg="http://www.w3.org/2000/svg"
   xmlns="http://www.w3.org/2000/svg"
   xmlns:sodipodi="http://sodipodi.sourceforge.net/DTD/sodipodi-0.dtd"
   xmlns:inkscape="http://www.inkscape.org/namespaces/inkscape"
   width="2000"
   height="2000"
   viewBox="0 0 2000 2000"
   id="svg2"
   version="1.1"
   inkscape:version="0.91 r13725"
   sodipodi:docname="drawing.svg"
   inkscape:export-filename="/home/garrett/SCM/guild-client/docs/artwork/flow.png"
   inkscape:export-xdpi="28.68"
   inkscape:export-ydpi="28.68">
  <defs
     id="defs4">
    <marker
       inkscape:stockid="TriangleOutL"
       orient="auto"
       refY="0"
       refX="0"
       id="TriangleOutL"
       style="overflow:visible"
       inkscape:isstock="true">
      <path
         id="path4617"
         d="m 5.77,0 -8.65,5 0,-10 8.65,5 z"
         style="fill:#000000;fill-opacity:1;fill-rule:evenodd;stroke:#000000;stroke-width:1pt;stroke-opacity:1"
         transform="scale(0.8,0.8)"
         inkscape:connector-curvature="0" />
    </marker>
    <marker
       inkscape:stockid="Arrow2Lend"
       orient="auto"
       refY="0"
       refX="0"
       id="Arrow2Lend"
       style="overflow:visible"
       inkscape:isstock="true">
      <path
         id="path4496"
         style="fill:#000000;fill-opacity:1;fill-rule:evenodd;stroke:#000000;stroke-width:0.625;stroke-linejoin:round;stroke-opacity:1"
         d="M 8.7185878,4.0337352 -2.2072895,0.01601326 8.7185884,-4.0017078 c -1.7454984,2.3720609 -1.7354408,5.6174519 -6e-7,8.035443 z"
         transform="matrix(-1.1,0,0,-1.1,-1.1,0)"
         inkscape:connector-curvature="0" />
    </marker>
    <linearGradient
       id="linearGradient3099">
      <stop
         offset="0"
         style="stop-color:#666666"
         id="stop3101" />
      <stop
         offset="1"
         style="stop-color:#f9f9f9"
         id="stop3103" />
    </linearGradient>
    <linearGradient
       id="linearGradient3075">
      <stop
         offset="0"
         style="stop-color:#808080"
         id="stop3077" />
      <stop
         offset=".036639"
         style="stop-color:#ececec"
         id="stop3083" />
      <stop
         offset=".10714"
         style="stop-color:#4d4d4d"
         id="stop3093" />
      <stop
         offset=".69014"
         style="stop-color:#666666"
         id="stop3095" />
      <stop
         offset="1"
         style="stop-color:#999999"
         id="stop3079" />
    </linearGradient>
  </defs>
  <sodipodi:namedview
     id="base"
     pagecolor="#ffffff"
     bordercolor="#666666"
     borderopacity="1.0"
     inkscape:pageopacity="0.0"
     inkscape:pageshadow="2"
     inkscape:zoom="0.7"
     inkscape:cx="624.24673"
     inkscape:cy="1070.9994"
     inkscape:document-units="px"
     inkscape:current-layer="layer1"
     showgrid="false"
     inkscape:window-width="3840"
     inkscape:window-height="2091"
     inkscape:window-x="0"
     inkscape:window-y="0"
     inkscape:window-maximized="1"
     units="px" />
  <metadata
     id="metadata7">
    <rdf:RDF>
      <cc:Work
         rdf:about="">
        <dc:format>image/svg+xml</dc:format>
        <dc:type
           rdf:resource="http://purl.org/dc/dcmitype/StillImage" />
        <dc:title></dc:title>
      </cc:Work>
    </rdf:RDF>
  </metadata>
  <g
     inkscape:label="Layer 1"
     inkscape:groupmode="layer"
     id="layer1"
     transform="translate(0,947.6378)">
    <g
       id="g5371"
       transform="matrix(0.86483719,-0.63290557,0.53454769,0.73043552,379.02705,-670.01182)"
       inkscape:export-xdpi="38.23"
       inkscape:export-ydpi="38.23">
      <g
         id="g5325">
        <g
           id="g5327">
          <path
             id="path5329"
             d="m 164.922,61.04 c -0.238,-1.282 -1.392,-1.881 -2.539,-1.846 -0.137,-0.319 -0.32,-0.622 -0.601,-0.877 -4.481,-4.069 -10.633,-6.445 -15.411,-10.301 -6.533,-5.27 -12.416,-12.188 -14.111,-20.596 -0.338,-1.669 -2.207,-1.965 -3.426,-1.258 -0.326,-1.254 -1.457,-2.368 -2.822,-2.374 -9.786,-0.044 -21.555,9.757 -28.758,15.556 -9.423,7.586 -19.444,16.999 -22.602,29.116 -0.05,0.194 -0.019,0.354 -0.038,0.534 -0.524,-0.493 -1.042,-0.991 -1.568,-1.482 -1.209,-1.126 -2.874,0.435 -2.064,1.691 -5.616,-2.152 -12.787,-5.466 -17.77,-5.466 -4.522,0 -10.147,7.543 -13.153,10.305 -13.618,12.512 -25.157,27.044 -39.089,39.255 -1.528,1.339 -1.214,4.361 0.676,5.243 11.147,5.203 22.847,8.602 34.53,12.366 1.397,0.45 2.908,-0.29 3.649,-1.485 4.09,-6.596 9.06,-12.457 14.335,-18.067 -1.024,6.186 0.462,12.459 6.301,16.489 6.261,4.322 13.792,4.976 21.007,3.542 -2.222,1.891 -4.36,3.884 -6.482,5.876 -2.481,2.329 -4.893,4.731 -7.371,7.062 -1.841,1.73 -4.383,3.037 -4.78,5.692 -0.184,1.231 0.267,2.34 1.212,2.902 -0.034,0.188 -0.104,0.356 -0.096,0.565 0.195,5.262 0.896,10.536 1.571,15.754 0.462,3.568 0.159,11.177 3.638,13.341 1.74,1.082 3.564,-0.072 4.247,-1.729 0.098,-0.237 0.138,-0.527 0.193,-0.805 7.095,-0.354 16.729,-11.668 21.137,-15.582 4.851,-4.308 9.608,-8.724 14.263,-13.244 3.043,-2.956 6.814,-5.968 9.061,-9.687 0.361,-0.295 0.597,-0.713 0.665,-1.24 0.159,-0.33 0.337,-0.653 0.469,-0.995 0.384,-0.987 0.085,-1.828 -0.511,-2.428 -0.121,-4.806 -0.055,-9.616 -0.362,-14.418 -0.249,-3.905 -0.584,-8.868 -3.991,-11.145 13.039,-0.377 24.395,-6.961 33.655,-15.977 7.895,-7.686 19.115,-22.531 16.936,-34.287 z M 127.866,28.866 c 0.71,9.192 6.159,16.468 12.716,22.677 4.543,4.302 11.67,10.739 18.299,11.622 -0.674,1.656 -1.215,3.373 -1.773,5.09 -11.945,-12.226 -26.962,-21.359 -39.675,-32.938 3.694,-1.928 7.311,-3.917 10.433,-6.451 z m -12.647,7.614 c 11.337,13.021 25.8,24.793 39.38,35.175 0.387,0.296 0.778,0.371 1.153,0.353 -0.211,0.529 -0.41,1.063 -0.651,1.581 -0.203,0.434 -0.433,0.852 -0.649,1.277 C 146.804,67.543 137.931,61.336 129.757,54.615 123.806,49.72 116.44,44.543 111.38,38.49 c 1.27,-0.688 2.556,-1.349 3.839,-2.01 z M 73.434,74.817 c 0.952,0.094 1.594,-0.36 1.931,-1.01 5.753,5.987 11.639,11.849 17.764,17.453 5.815,5.32 12.375,11.495 19.62,15.147 -0.074,0.007 -0.145,0.025 -0.219,0.034 -2.595,0.244 -3.082,3.427 -1.329,4.542 -0.149,0.115 -0.243,0.288 -0.368,0.433 C 94.719,97.286 76.041,85.969 59.719,71.97 c 5.022,0.789 10.906,2.57 13.715,2.847 z M 51.901,72.539 c 0.897,-0.78 2.519,-1.006 4.49,-0.924 0.048,0.083 0.092,0.166 0.174,0.243 16.934,15.84 35.497,30.885 54.001,44.89 0.605,2.761 1.667,5.598 2.02,8.305 C 94.737,105.526 71.515,90.114 50.897,73.455 c 0.34,-0.301 0.663,-0.62 1.004,-0.916 z m -13.359,47.195 c -0.985,1.383 -2.418,2.166 -4.129,2.534 -3.176,-2.084 -6.376,-4.131 -9.564,-6.195 -2.444,-1.582 -4.902,-3.143 -7.349,-4.721 -0.833,-0.536 -2.167,-0.654 -2.712,-0.464 -0.138,-0.092 -0.276,-0.197 -0.416,-0.23 -0.296,-0.068 -0.48,0.22 -0.366,0.476 0.51,1.143 0.151,1.695 1.45,2.67 2.256,1.692 4.542,3.341 6.849,4.962 1.446,1.017 2.893,2.032 4.339,3.05 -5.915,-1.398 -12.605,-4.585 -17.47,-6.993 4.34,-3.969 8.508,-8.103 12.609,-12.306 2.854,3.9 6.184,7.441 9.743,10.702 1.901,1.742 4.686,4.529 7.545,5.834 -0.169,0.232 -0.362,0.447 -0.529,0.681 z m 3.055,-3.93 c -0.305,-0.166 -0.634,-0.334 -1.007,-0.524 -2.376,-1.216 -4.513,-2.872 -6.561,-4.564 -3.739,-3.088 -6.982,-6.69 -10.283,-10.225 0.559,-0.579 1.11,-1.167 1.668,-1.748 2.413,1.766 5.804,3.35 6.968,4.085 2.606,1.644 5.225,3.267 7.847,4.884 1.311,0.808 3.008,2.146 4.5,0.862 2.833,-2.438 -5.614,-5.662 -6.687,-6.227 -2.935,-1.543 -5.863,-3.1 -8.771,-4.693 -0.618,-0.339 -1.24,-0.67 -1.862,-1.002 2.515,-2.634 5.029,-5.265 7.543,-7.904 0.042,-0.044 0.086,-0.085 0.128,-0.129 2.875,3.054 5.794,6.072 8.775,9.015 2.204,2.176 4.911,5.349 7.976,6.852 -3.56,3.639 -7.055,7.363 -10.234,11.318 z M 57.692,98.569 c -0.963,0.964 -1.932,1.935 -2.898,2.904 -6.393,-4.36 -12.118,-9.541 -17.802,-14.771 1.81,-1.858 3.666,-3.664 5.524,-5.469 5.423,5.862 11.333,11.277 17.494,16.4 -0.78,-0.05 -1.597,0.214 -2.318,0.936 z m 7.543,25.73 c -6.084,-3.019 -7.185,-8.579 -6.392,-14.264 4.397,6.301 10.833,11.577 17.078,16.345 -3.65,0.164 -7.296,-0.397 -10.686,-2.081 z m -5.752,-17.541 c 0.106,-0.423 0.218,-0.844 0.337,-1.262 0.795,-0.804 1.591,-1.608 2.39,-2.41 0.903,-0.907 1.089,-1.967 0.832,-2.911 2.867,2.321 5.766,4.598 8.677,6.834 6.478,4.978 12.562,10.12 18.522,15.381 -0.247,0.056 -0.489,0.079 -0.742,0.208 -2.313,1.182 -4.799,2.129 -7.349,2.809 -7.775,-6.156 -16.312,-10.711 -22.667,-18.649 z m 17.434,64.762 c -1.33,1.159 -2.636,2.084 -3.674,3.154 -0.495,-2.357 -1.2,-4.731 -1.417,-6.289 -0.151,-1.085 -0.285,-2.176 -0.425,-3.264 0.553,0.6 1.102,1.205 1.658,1.803 1.235,1.329 2.558,3.197 4.101,4.38 -0.081,0.071 -0.16,0.146 -0.243,0.216 z m 2.381,-2.114 c -1.048,-1.403 -2.697,-2.583 -3.91,-3.709 -1.475,-1.371 -2.962,-2.73 -4.445,-4.092 -0.355,-2.759 -0.73,-5.514 -1.209,-8.248 2.058,2.108 4.025,4.318 6.019,6.469 2.081,2.245 4.162,5.088 6.939,6.565 -1.133,1.003 -2.264,2.008 -3.394,3.015 z m 5.704,-5.066 c -5.107,-4.187 -9.621,-9.086 -14.779,-13.229 1.865,-1.574 3.589,-3.705 5.044,-5.533 0.039,0.131 0.103,0.26 0.217,0.384 2.822,3.037 5.795,5.911 8.862,8.698 1.778,1.616 3.666,3.627 5.737,5.167 -1.672,1.525 -3.39,3.006 -5.081,4.513 z m 7.885,-7.104 c -1.814,-1.512 -3.971,-2.752 -5.801,-4.111 -3.571,-2.652 -7.016,-5.467 -10.313,-8.451 -0.187,-0.17 -0.39,-0.231 -0.585,-0.24 0.271,-0.331 0.53,-0.641 0.776,-0.919 1.128,-1.271 2.246,-2.562 3.373,-3.848 2.731,2.582 5.426,5.203 8.257,7.678 2.316,2.025 5.13,4.763 8.133,6.341 -1.272,1.192 -2.559,2.368 -3.84,3.55 z m 14.705,-14.293 c -3.107,-2.517 -6.065,-5.209 -9.192,-7.702 -2.271,-1.811 -4.922,-3.755 -7.906,-3.987 -0.524,-0.041 -1.035,0.317 -1.297,0.744 -0.186,0.304 -0.866,0.604 -1.175,0.772 -0.545,0.298 -0.064,1.107 0.483,0.828 0.587,-0.3 1.585,0.604 2.204,0.827 1.934,0.697 3.529,2.129 5.081,3.425 3.091,2.581 5.916,5.468 8.933,8.136 -0.155,0.156 -0.312,0.342 -0.467,0.494 -1.506,1.478 -3.039,2.926 -4.566,4.382 -2.835,-2.188 -6.42,-3.823 -9.26,-5.896 -2.988,-2.181 -5.917,-4.438 -8.892,-6.637 2.813,-3.16 5.723,-6.233 9.088,-8.799 0.533,-0.406 0.783,-0.944 0.841,-1.488 0.317,-0.15 0.639,-0.294 0.95,-0.45 0.94,-0.471 1.341,-1.211 1.415,-1.991 5.286,4.747 10.514,9.57 15.834,14.489 0.116,0.107 0.244,0.157 0.367,0.234 -0.836,0.849 -1.639,1.738 -2.441,2.619 z m 5.486,-5.301 c -0.022,-0.049 -0.021,-0.097 -0.049,-0.146 C 106.893,126.199 94.564,118.062 84.558,110.394 71.103,100.085 57.115,90.616 44.487,79.296 c 1.533,-1.457 3.12,-2.86 4.693,-4.278 20.211,18.531 40.513,38.024 62.374,54.441 0.509,0.382 1.013,0.42 1.457,0.271 0.195,2.458 0.398,4.915 0.771,7.347 -0.243,0.164 -0.465,0.386 -0.704,0.565 z m 5.088,-32.172 c -0.082,-0.175 -0.201,-0.339 -0.36,-0.48 C 111.015,98.957 102.875,94.394 95.857,88.533 89.77,83.449 84.056,77.952 78.313,72.487 c 1.152,-0.124 2.247,-0.82 2.739,-2.264 0.687,-2.015 1.609,-3.914 2.625,-5.761 6.631,7.743 13.244,15.488 20.298,22.859 4.777,4.99 11.586,13.273 18.73,16.788 -1.488,0.525 -2.996,0.998 -4.539,1.361 z m 10.219,-3.813 C 121.42,95.701 113.572,90.893 106.779,84.516 99.212,77.412 91.972,69.936 84.835,62.393 c 1.172,-1.865 2.491,-3.646 3.916,-5.352 0.074,0.108 0.154,0.214 0.272,0.303 9.669,7.33 18.415,15.62 26.993,24.178 5.678,5.664 11.205,12.02 17.566,17.048 -1.679,1.122 -3.404,2.173 -5.197,3.087 z m 8.924,-5.771 C 130.571,89.217 123.075,83.096 116.135,76.663 107.912,69.041 99.559,61.616 90.238,55.359 c 1.424,-1.579 2.949,-3.072 4.508,-4.527 10.895,7.022 20.805,17.756 29.494,27.269 1.372,1.502 9.66,12.198 15.536,15.623 -0.815,0.73 -1.612,1.482 -2.467,2.162 z m 5.3,-4.869 c -2.229,-1.199 -9.743,-9.911 -10.753,-10.961 -4.44,-4.605 -8.697,-9.4 -13.397,-13.747 -4.797,-4.436 -9.888,-8.557 -15.006,-12.611 -1.982,-1.57 -4.18,-3.757 -6.654,-4.761 2.246,-1.976 4.565,-3.842 6.869,-5.61 2.004,-1.54 4.172,-2.874 6.4,-4.122 3.305,6.764 9.614,11.688 15.198,16.687 8.485,7.601 17.243,15.121 26.116,22.263 0.312,0.251 0.643,0.389 0.973,0.469 -1.029,1.66 -2.145,3.269 -3.314,4.835 0.023,-0.185 0.078,-0.356 0.037,-0.568 -0.572,-2.891 -3.541,-4.932 -5.591,-6.763 -4.782,-4.27 -9.728,-8.362 -14.637,-12.483 -7.584,-6.366 -17.349,-12.648 -23.821,-20.025 -0.617,-0.704 -1.867,0.247 -1.304,1.006 5.756,7.762 13.631,14.015 20.935,20.483 4.525,4.01 9.053,8.018 13.518,12.096 2.633,2.403 5.287,5.983 8.623,7.436 0.494,0.215 0.967,0.16 1.375,-0.01 -1.014,1.305 -2.057,2.584 -3.135,3.826 -0.771,0.889 -1.609,1.717 -2.432,2.56 z"
             inkscape:connector-curvature="0" />
          <path
             id="path5331"
             d="m 183.59,6.175 c -12.338,5.282 -25.758,8.642 -39.229,6.73 -2.083,-0.296 -3.519,1.251 -3.808,2.854 -0.715,0.128 -1.35,0.659 -1.262,1.481 0.93,8.647 5.314,16.165 11.758,21.902 4.785,4.262 14.271,10.249 20.748,7.281 1.424,-0.651 1.738,-3.049 0.521,-4.039 -0.284,-0.23 -0.569,-0.373 -0.853,-0.554 5.279,-10.504 10.67,-20.921 16.842,-30.939 1.998,-3.239 -1.79,-5.969 -4.717,-4.716 z m -18.619,33.374 c -3.137,-0.967 -6.012,-2.697 -8.688,-4.553 -5.714,-3.963 -9.565,-9.944 -12.79,-16.005 2.057,0.367 4.114,0.574 6.17,0.711 2.193,3.805 4.879,7.294 7.844,10.53 2.32,2.533 5.308,6.033 8.949,6.165 0.043,0.002 0.082,-0.016 0.125,-0.019 -0.532,1.061 -1.081,2.111 -1.61,3.171 z m 2.873,-5.652 c -0.068,-0.099 -0.135,-0.196 -0.235,-0.28 -2.479,-2.045 -5.26,-3.61 -7.707,-5.778 -2.704,-2.394 -5.179,-5.09 -7.349,-7.99 2.311,0.041 4.613,-0.072 6.908,-0.279 0.852,1.866 2.021,3.591 3.269,5.214 1.753,2.279 3.812,5.237 6.196,7.013 -0.358,0.701 -0.726,1.397 -1.082,2.1 z m 2.961,-5.746 c -1.521,-1.663 -3.488,-3.12 -5.002,-4.671 -1.301,-1.333 -2.588,-2.724 -3.668,-4.25 1.996,-0.259 3.98,-0.613 5.957,-1.018 -0.112,0.29 -0.125,0.63 0.025,0.983 0.922,2.156 1.981,5.044 3.741,6.943 -0.348,0.672 -0.707,1.339 -1.053,2.013 z m 2.682,-5.117 c -0.19,-0.232 -0.382,-0.463 -0.562,-0.706 -1.02,-1.377 -1.881,-2.861 -2.738,-4.341 -0.044,-0.076 -0.102,-0.116 -0.15,-0.178 2.495,-0.572 4.971,-1.257 7.418,-2.058 -1.361,2.407 -2.674,4.839 -3.968,7.283 z"
             inkscape:connector-curvature="0" />
          <path
             id="path5333"
             d="m 19.506,115.706 c 0.062,0 0.062,-0.096 0,-0.096"
             inkscape:connector-curvature="0" />
        </g>
      </g>
      <g
         id="g5335" />
      <g
         id="g5337" />
      <g
         id="g5339" />
      <g
         id="g5341" />
      <g
         id="g5343" />
      <g
         id="g5345" />
      <g
         id="g5347" />
      <g
         id="g5349" />
      <g
         id="g5351" />
      <g
         id="g5353" />
      <g
         id="g5355" />
      <g
         id="g5357" />
      <g
         id="g5359" />
      <g
         id="g5361" />
      <g
         id="g5363" />
    </g>
    <path
       inkscape:connector-curvature="0"
       id="path5427"
       style="fill:#231f20;fill-opacity:1;fill-rule:nonzero;stroke:none"
       d="m 697.20885,-591.48132 c -1.7144,1.0831 -4.2975,2.8733 -5.7492,2.0185 -1.3518,-0.7821 -2.1182,-4.0236 -0.51,-6.9611 0.755,-1.394 4.6525,-2.6779 6.0178,-3.3868 10.8841,-5.755 26.7142,-15.8308 37.1085,-21.4596 3.9365,-3.7789 10.9578,-6.4564 14.4831,-13.2629 -0.7598,-0.9741 -2.0025,-1.5796 -3.3993,-2.0725 -1.1585,-0.094 -1.6585,1.2209 -2.3395,2.1539 -2.104,0.2669 -3.9418,1.1073 -5.4792,2.5915 -1.4165,-0.8646 -1.8644,0.3466 -3.0481,-0.017 -3.1257,1.7178 -7.7149,1.9272 -10.7668,2.3339 -0.4905,0.064 -0.6702,0.4913 -1.2584,0.562 -20.5711,2.47 -41.3328,3.2015 -62.9539,3.854 -13.1776,0.3985 -27.0489,0.2893 -40.8734,-3.5466 -0.3745,-3.0554 1.5355,-5.4479 2.625,-7.4024 9.1595,3.0101 20.9366,2.3019 28.5883,3.9332 0.8797,0.3664 1.0709,-0.745 1.7097,-0.9032 13.453,1.634 28.0908,-0.8998 41.4263,-1.1268 11.9962,-2.7617 28.195,-1.4928 40.4564,-5.8098 -12.5745,-7.212 -25.6185,-16.1356 -37.2206,-21.7797 -1.0317,-4.2176 0.5588,-7.7048 3.7089,-8.9886 6.645,4.5216 12.9171,7.4035 18.971,10.0357 0.862,0.381 0.252,1.0518 0.1773,1.0274 1.1491,0.454 1.2599,-0.6439 3.0481,0.017 1.6252,0.6082 1.4638,1.5063 2.5919,2.2961 1.5632,1.093 4.3246,1.3421 5.9981,2.4302 0.8575,0.5608 1.1901,1.6811 1.8758,2.0635 2.5684,1.4618 4.4803,0.888 3.9339,3.2186 1.5921,0.9401 0.062,-1.5791 0.9897,-1.1341 0.8143,0.5464 1.7573,0.9936 1.4251,2.4023 5.8986,0.1532 10.6985,5.4713 16.9146,8.8835 -0.1714,0.7732 0.033,1.2658 0.4434,1.6014 -1.0222,0.3349 -0.2838,1.6458 -0.4568,2.2798 -1.4806,5.3218 -5.8303,9.6571 -8.4775,13.7528 -10.994,7.4973 -21.9849,14.9955 -33.8772,20.5648 -4.9252,3.5597 -10.1636,6.0664 -16.083,9.8312"
       inkscape:export-xdpi="38.23"
       inkscape:export-ydpi="38.23" />
    <text
       xml:space="preserve"
       style="font-style:normal;font-variant:normal;font-weight:normal;font-stretch:normal;font-size:71.12268829px;line-height:100%;font-family:Anysome;-inkscape-font-specification:'Anysome, Normal';text-align:center;letter-spacing:0px;word-spacing:0px;writing-mode:lr-tb;text-anchor:middle;fill:#000000;fill-opacity:1;stroke:none;stroke-width:1px;stroke-linecap:butt;stroke-linejoin:miter;stroke-opacity:1"
       x="424.58743"
       y="-382.56924"
       id="text4329"
       sodipodi:linespacing="100%"
       inkscape:export-xdpi="38.23"
       inkscape:export-ydpi="38.23"><tspan
         sodipodi:role="line"
         id="tspan4331"
         x="424.58743"
         y="-382.56924"
         style="font-style:normal;font-variant:normal;font-weight:normal;font-stretch:normal;font-size:71.12268829px;line-height:100%;font-family:Anysome;-inkscape-font-specification:'Anysome, Normal';text-align:center;writing-mode:lr-tb;text-anchor:middle">Train and evaluate</tspan><tspan
         sodipodi:role="line"
         x="424.58743"
         y="-311.44656"
         style="font-style:normal;font-variant:normal;font-weight:normal;font-stretch:normal;font-size:71.12268829px;line-height:100%;font-family:Anysome;-inkscape-font-specification:'Anysome, Normal';text-align:center;writing-mode:lr-tb;text-anchor:middle"
         id="tspan4672">your model</tspan></text>
    <g
       id="g4473"
       transform="matrix(0.2010984,0.00304129,-0.00304129,0.2010984,1008.3459,-630.28762)"
       inkscape:export-xdpi="38.23"
       inkscape:export-ydpi="38.23">
      <g
         id="g4431">
        <g
           id="g4433">
          <path
             id="path4435"
             d="M 366.287,30.564 C 342.481,20.581 316.527,13.987 292.026,8.351 267.936,2.809 242.973,0 217.836,0 192.197,0 166.404,2.923 141.177,8.674 114.043,14.862 85.588,25.921 58.888,40.657 50.07,45.519 49.819,53.091 50.459,57.168 l 0.068,0.427 -0.079,0.427 c -0.239,1.378 -0.338,2.661 -0.292,3.925 3.755,104.602 4.067,208.365 4.073,323.447 0,1.812 0.287,3.59 0.904,5.581 l 0.109,0.589 c 0.267,3.909 2.277,7.343 5.969,10.227 47.273,36.795 110.263,57.904 172.814,57.904 32.667,0 63.393,-5.683 91.333,-16.895 25.547,-10.258 51.074,-24.811 71.884,-41.01 3.696,-2.884 5.713,-6.317 5.977,-10.227 l 0.106,-0.579 c 0.615,-2.011 0.904,-3.778 0.904,-5.591 0,-86.392 0.152,-170.856 2.057,-254.43 0.173,-7.513 0.853,-15.335 1.568,-23.618 1.352,-15.541 2.742,-31.621 0.544,-45.499 -1.442,-9.134 -17.184,-20.828 -42.111,-31.282 z M 105.329,57.688 c 35.622,-14.851 73.666,-22.386 113.079,-22.386 42.962,0 85.698,8.835 127.019,26.261 l 4.742,2 -4.423,2.63 c -31.737,18.87 -70.3,28.843 -111.507,28.843 -44.283,0 -90.147,-11.593 -129.146,-32.659 l -4.793,-2.589 5.029,-2.1 z M 368.85,352.574 c -0.04,8.439 -0.086,16.869 -0.086,25.309 0,4.672 -6.881,10.821 -40.436,25.664 l -1.971,0.884 c -15.274,6.886 -31.366,11.893 -47.814,14.858 -13.385,2.406 -26.974,3.864 -40.38,4.347 -3.293,0.111 -6.594,0.173 -9.884,0.173 -18.159,0 -36.006,-1.809 -53.045,-5.362 -15.033,-3.144 -29.546,-7.841 -43.143,-13.975 l -1.66,-0.741 c -35.8,-15.899 -40.736,-21.815 -40.736,-25.853 0,-8.14 -0.045,-16.274 -0.094,-24.41 l -0.086,-21.733 3.728,1.798 c 44.953,21.525 93.354,32.895 139.969,32.895 47.19,0 91.556,-11.171 131.87,-33.22 l 3.859,-2.112 -0.091,21.478 z m 0.376,-94.399 c -0.04,5.51 -0.051,11.009 -0.065,16.514 l -0.051,14.624 -1.158,0.762 c -40.934,27.229 -86.63,41.051 -135.831,41.051 -45.796,0 -93.135,-12.532 -136.897,-36.252 -1.285,-0.695 -2.595,-1.224 -4.004,-1.63 l -1.871,-0.538 -0.074,-18.992 c -0.021,-7.616 -0.041,-15.238 -0.104,-22.855 l -0.025,-3.651 3.458,1.168 c 56.013,18.891 108.725,28.473 156.666,28.473 41.37,0 80.537,-7.099 116.413,-21.109 l 3.569,-1.396 -0.026,3.831 z m 0.894,-83.012 c -0.127,7.947 -0.203,15.897 -0.269,23.841 l -0.168,16.536 -1.462,0.696 c -35.627,16.968 -75.393,25.573 -118.186,25.573 -47.669,0 -99.876,-10.341 -159.61,-31.608 l -1.706,-0.609 -0.17,-16.384 c -0.069,-7.79 -0.137,-15.579 -0.277,-23.363 l -0.079,-4.39 3.885,2.039 c 42.909,22.521 91.888,34.424 141.64,34.424 45.653,0 91.543,-10.083 132.705,-29.155 l 3.768,-1.742 -0.071,4.142 z m 1.757,-79.526 c -0.214,7.368 -0.366,14.731 -0.528,22.099 l -0.279,12.781 -1.3,0.724 c -41.559,23.062 -88.58,35.249 -135.986,35.254 -0.005,0 -0.01,0 -0.01,0 -50.907,0 -100.262,-14.002 -142.75,-40.497 -0.569,-0.353 -1.135,-0.597 -1.696,-0.853 l -2.079,-0.955 -0.262,-11.654 c -0.104,-5.002 -0.208,-10.009 -0.353,-15.019 l -0.124,-4.496 3.96,2.138 c 42.333,22.825 90.729,34.891 139.959,34.896 50.216,0 97.771,-12.7 137.506,-36.721 l 4.083,-2.47 -0.141,4.773 z"
             inkscape:connector-curvature="0" />
        </g>
      </g>
      <g
         id="g4437" />
      <g
         id="g4439" />
      <g
         id="g4441" />
      <g
         id="g4443" />
      <g
         id="g4445" />
      <g
         id="g4447" />
      <g
         id="g4449" />
      <g
         id="g4451" />
      <g
         id="g4453" />
      <g
         id="g4455" />
      <g
         id="g4457" />
      <g
         id="g4459" />
      <g
         id="g4461" />
      <g
         id="g4463" />
      <g
         id="g4465" />
    </g>
    <text
       sodipodi:linespacing="100%"
       id="text4476"
       y="-387.49625"
       x="964.18561"
       style="font-style:normal;font-variant:normal;font-weight:normal;font-stretch:normal;font-size:71.12268829px;line-height:100%;font-family:Anysome;-inkscape-font-specification:'Anysome, Normal';text-align:center;letter-spacing:0px;word-spacing:0px;writing-mode:lr-tb;text-anchor:middle;fill:#000000;fill-opacity:1;stroke:none;stroke-width:1px;stroke-linecap:butt;stroke-linejoin:miter;stroke-opacity:1"
       xml:space="preserve"
       inkscape:export-xdpi="38.23"
       inkscape:export-ydpi="38.23"><tspan
         id="tspan4480"
         style="font-style:normal;font-variant:normal;font-weight:normal;font-stretch:normal;font-size:71.12268829px;line-height:100%;font-family:Anysome;-inkscape-font-specification:'Anysome, Normal';text-align:center;writing-mode:lr-tb;text-anchor:middle"
         y="-387.49625"
         x="964.18561"
         sodipodi:role="line">Collect results</tspan><tspan
         style="font-style:normal;font-variant:normal;font-weight:normal;font-stretch:normal;font-size:71.12268829px;line-height:100%;font-family:Anysome;-inkscape-font-specification:'Anysome, Normal';text-align:center;writing-mode:lr-tb;text-anchor:middle"
         y="-316.37357"
         x="964.18561"
         sodipodi:role="line"
         id="tspan4779">and stats</tspan></text>
    <text
       xml:space="preserve"
       style="font-style:normal;font-variant:normal;font-weight:normal;font-stretch:normal;font-size:71.12268829px;line-height:100%;font-family:Anysome;-inkscape-font-specification:'Anysome, Normal';text-align:center;letter-spacing:0px;word-spacing:0px;writing-mode:lr-tb;text-anchor:middle;fill:#000000;fill-opacity:1;stroke:none;stroke-width:1px;stroke-linecap:butt;stroke-linejoin:miter;stroke-opacity:1"
       x="1469.7976"
       y="-390.51505"
       id="text4751"
       sodipodi:linespacing="100%"
       inkscape:export-xdpi="38.23"
       inkscape:export-ydpi="38.23"><tspan
         sodipodi:role="line"
         x="1469.7976"
         y="-390.51505"
         style="font-style:normal;font-variant:normal;font-weight:normal;font-stretch:normal;font-size:71.12268829px;line-height:100%;font-family:Anysome;-inkscape-font-specification:'Anysome, Normal';text-align:center;writing-mode:lr-tb;text-anchor:middle"
         id="tspan4755">View, compare,</tspan><tspan
         sodipodi:role="line"
         x="1469.7976"
         y="-319.39236"
         style="font-style:normal;font-variant:normal;font-weight:normal;font-stretch:normal;font-size:71.12268829px;line-height:100%;font-family:Anysome;-inkscape-font-specification:'Anysome, Normal';text-align:center;writing-mode:lr-tb;text-anchor:middle"
         id="tspan4759">and share</tspan></text>
    <path
       inkscape:connector-curvature="0"
       id="path5433"
       style="fill:#231f20;fill-opacity:1;fill-rule:nonzero;stroke:none"
       d="m 1216.2059,-653.72052 c -3.4984,-8.3888 -9.2652,2.9123 -3.6382,6.1179 10.5794,3.6718 20.7431,7.0849 35.1176,8.6711 -34.1828,6.8567 -76.0488,5.8369 -112.6315,2.2641 -2.6957,1.7098 -2.9958,5.9692 -0.7971,8.1025 7.8017,1.6166 17.6847,-0.4077 22.33,2.4907 6.9711,-1.3904 19.4006,0.4474 27.5888,1.3068 0.673,0.2139 0.8362,-0.2516 0.4391,-0.3268 0.03,-1.6264 1.5274,2.05 3.0642,0.4493 -0.085,-1.1877 -0.8659,0.2493 -1.5311,-0.2246 0.8811,-1.8923 2.6678,0.1635 2.3661,0.3303 0.5788,0.054 1.2368,-0.5512 3.1655,-0.6937 1.0716,0.3548 -0.7065,0.4678 -0.8801,0.6551 5.4507,1.5338 10.1661,-0.059 16.6402,1.2672 0.7684,-1.2411 1.7093,0.1351 2.1424,-1.252 8.1667,1.6531 14.2197,-0.2459 26.1665,0.3161 -10.3342,10.5647 -25.2173,18.997 -35.809,30.7466 -0.8519,2.4834 -0.3847,5.2908 2.1077,6.9606 20.7239,-16.0191 43.6,-29.1489 60.5786,-50.2007 3.812,-9.7769 -10.4389,-8.5259 -17.7596,-9.6469 -10.6196,-1.6243 -21.0352,-4.8464 -28.6602,-7.3333"
       inkscape:export-xdpi="38.23"
       inkscape:export-ydpi="38.23" />
    <path
       inkscape:connector-curvature="0"
       id="path5547"
       style="fill:#231f20;fill-opacity:1;fill-rule:nonzero;stroke:none"
       d="m 650.39325,-242.08192 c -8.527,-8.3926 -30.0972,-20.2504 -15.8029,-32.6896 15.9931,-13.9169 35.8258,-16.7565 51.7672,-26.3073 5.3419,1.8732 8.7542,7.2726 6.2344,11.2857 -0.8984,2.782 -3.6142,1.2947 -5.4645,1.8405 -13.248,6.5071 -27.7002,10.1985 -39.6645,19.7282 27.2047,16.2159 296.5519,39.2413 325.49635,39.5957 239.8315,2.9364 192.6426,1.2383 280.0097,-6.351 49.6324,-4.3114 58.5156,-33.0787 64.3129,-37.2044 3.0895,-2.1531 6.085,1.6882 7.6095,4.524 -10.0239,31.6785 -25.2444,26.2918 -42.9662,37.2729 -21.9658,13.611 -309.4011,28.2631 -625.34265,-22.0107 6.947,10.5025 18.6032,19.0035 28.3638,28.3155 0.1232,3.3068 2.5874,5.6257 0.7785,9.7573 -15.054,-3.1561 -23.9093,-16.5121 -35.3316,-27.7568"
       sodipodi:nodetypes="ccccccssccscccc"
       inkscape:export-xdpi="38.23"
       inkscape:export-ydpi="38.23" />
    <g
       id="g5072"
       transform="matrix(1.5446014,0,0,1.5446014,1309.032,-713.62472)"
       inkscape:export-xdpi="38.23"
       inkscape:export-ydpi="38.23">
      <g
         id="g5026">
        <g
           id="g5028">
          <path
             id="path5030"
             d="m 192.099,131.921 c 1.37,-3.345 -1.994,-4.879 -7.497,-5.377 5.344,-23.639 5.353,-49.826 0.839,-73.543 -0.316,-1.667 -2.157,-1.645 -3.094,-0.684 -4.413,-0.24 -9.677,-0.667 -13.892,0.513 -1.586,0.444 -1.272,2.878 0.388,2.868 4.418,-0.024 8.881,0.464 13.296,0.362 3.939,23.3 2.567,47.003 -0.58,70.316 -9.055,-0.235 -21.766,1.479 -30.01,2.736 1.817,-4.865 2.438,-9.964 2.657,-15.125 0.337,-0.402 0.422,-0.998 0.035,-1.46 0.037,-1.259 0.073,-2.52 0.083,-3.782 0.061,-8.036 0.307,-17.583 -1.554,-25.426 -0.34,-1.436 -2.639,-1.488 -2.944,0 -0.016,0.072 -0.02,0.148 -0.033,0.222 -0.171,-0.119 -0.368,-0.213 -0.606,-0.258 -3.306,-0.629 -6.861,-0.687 -10.2,-0.346 -1.739,0.177 -3.229,0.464 -3.913,1.76 -0.933,-1.029 -2.869,-1.079 -3.17,0.634 -2.653,15.063 -4.03,30.946 -2.188,46.214 -3.132,0.211 -6.266,0.409 -9.411,0.557 1.617,-28.23 0.046,-56.654 1.245,-84.93 0.095,-2.236 -3.05,-2.378 -3.641,-0.506 -5.906,-0.688 -11.828,-1.16 -17.646,0.375 -0.08,0.021 -0.128,0.067 -0.199,0.096 -0.995,-0.489 -2.446,-0.027 -2.488,1.441 -0.241,8.469 -1.675,75.445 2.219,84.189 -2.599,0.056 -5.199,0.116 -7.796,0.168 -0.129,-1.096 -0.211,-2.188 -0.321,-3.281 0.09,-0.349 0.108,-0.738 -0.031,-1.163 -0.02,-0.06 -0.069,-0.075 -0.095,-0.125 -0.376,-3.992 -0.616,-7.976 -0.791,-11.958 0.531,-0.347 0.733,-1.109 0.204,-1.631 -0.081,-0.08 -0.202,-0.119 -0.292,-0.19 -0.55,-14.477 -0.06,-28.919 -0.073,-43.517 -10e-4,-1.589 -1.603,-2.103 -2.705,-1.587 -1.795,-0.387 -4.087,0.211 -5.793,0.356 -2.288,0.196 -4.744,0.228 -6.959,0.893 -0.189,0.057 -0.266,0.203 -0.4,0.306 -0.233,-1.888 -2.702,-1.836 -2.95,0.032 -1.493,11.209 -1.76,22.807 -2.451,34.103 -0.566,9.266 -1.259,19.322 1.635,28.286 -2.178,0.075 -4.357,0.145 -6.525,0.242 -1.349,0.062 -2.76,0.128 -4.13,0.193 2.768,-13.521 1.331,-27.018 0.152,-40.686 -1.484,-17.217 -0.913,-34.41 -0.773,-51.662 0.011,-1.326 -1.1,-1.904 -2.121,-1.788 -2.344,-1.276 -6.021,-1.131 -8.552,-1.234 -1.697,-0.07 -3.4,-0.115 -5.099,-0.093 -0.674,0.009 -1.339,0.002 -1.99,0.198 -0.151,0.046 -0.421,0.259 -0.656,0.472 -0.62,-0.532 -1.733,-0.527 -2.319,0.295 -6.58,9.229 -3.081,26.291 -2.491,36.726 1.094,19.344 2.516,39.37 0.994,58.689 -3.07,0.066 -6.146,0.098 -9.213,0.077 3.361,-13.89 -0.065,-27.558 0.742,-41.638 0.41,-7.141 3.997,-20.256 -0.764,-26.484 -0.7,-0.915 -1.93,-0.867 -2.54,-0.191 -0.077,-0.009 -0.134,-0.044 -0.217,-0.044 L 12.822,66.508 c -0.825,-0.002 -1.341,0.47 -1.563,1.062 -0.821,-0.333 -1.868,-0.091 -2.054,0.975 -3.579,20.523 -4.996,44.167 -3.321,64.928 -1.601,-0.213 -3.212,-0.399 -4.783,-0.671 -0.7,-0.12 -1.399,0.566 -0.971,1.264 0.153,0.25 0.358,0.421 0.531,0.64 -1.06,2.102 -0.409,6.328 -0.377,8.241 0.031,1.877 -0.018,5.729 1.745,7.132 3.777,7.31 46.253,2.153 53.43,1.867 10.194,-0.407 20.377,-0.688 30.558,-0.921 0.448,0.27 0.892,0.452 1.316,0.404 0.292,-0.033 0.556,-0.219 0.735,-0.466 5.006,-0.11 10.009,-0.183 15.013,-0.268 0.052,0.016 0.103,0.048 0.155,0.061 0.246,0.062 0.466,0.017 0.659,-0.075 28.204,-0.47 56.395,-0.622 84.659,-1.228 1.503,-0.032 1.992,-1.529 1.509,-2.562 0.162,-0.479 0.273,-0.987 0.375,-1.456 0.451,-2.094 0.685,-4.245 0.954,-6.367 0.222,-1.738 0.921,-4.731 0.697,-7.133 0.002,-0.002 0.007,-0.007 0.01,-0.014 z m -43.4,-45.031 c 0.266,0.025 0.502,-0.012 0.712,-0.092 -0.072,1.227 -0.001,2.49 0.047,3.748 -0.729,-0.445 -1.448,-0.884 -2.092,-1.328 -1.306,-0.901 -2.667,-1.974 -4.079,-2.915 1.804,0.185 3.602,0.405 5.412,0.587 z m -13.151,-0.553 c 0.023,-0.13 -0.007,-0.238 -0.007,-0.359 0.004,-0.012 0.016,-0.014 0.019,-0.025 0.006,-0.026 3.252,0.056 4.689,0.102 1.763,1.746 4,3.2 5.931,4.7 1.056,0.82 2.211,1.925 3.428,2.858 0.116,1.367 0.239,2.737 0.384,4.092 -1.811,-0.768 -5.183,-3.842 -5.847,-4.352 -2.506,-1.926 -5.079,-4.302 -8.177,-5.192 -0.635,-0.183 -0.866,0.748 -0.268,0.972 4.131,1.551 7.367,5.245 10.646,8.059 0.661,0.566 2.411,2.148 3.842,2.458 0.133,1.319 0.25,2.623 0.315,3.885 0.019,0.369 0.016,0.739 0.032,1.108 -0.115,0.011 -0.207,0.039 -0.308,0.09 -1.021,-0.813 -2.074,-1.941 -2.652,-2.414 -2.11,-1.732 -4.217,-3.469 -6.312,-5.218 -2.024,-1.69 -4.577,-3.437 -6.544,-5.412 0.241,-1.785 0.508,-3.568 0.829,-5.352 z m -1.077,7.406 c 1.858,1.982 4.291,3.721 6.1,5.33 2.226,1.982 4.469,3.945 6.711,5.909 1.049,0.919 2.073,2.232 3.345,2.795 0.01,0.543 0.041,1.085 0.047,1.628 -0.137,-0.104 -0.263,-0.214 -0.402,-0.318 -0.254,-0.188 -0.544,-0.109 -0.774,0.058 -2.76,-2.086 -5.413,-4.332 -8.119,-6.461 -1.998,-1.573 -4.658,-4.36 -7.348,-5.135 0.129,-1.269 0.286,-2.538 0.44,-3.806 z m -0.543,4.891 c 1.069,0.624 2.104,1.722 2.91,2.394 1.871,1.562 3.711,3.161 5.558,4.752 2.688,2.314 5.401,4.636 8.243,6.773 -0.023,1.528 -0.033,3.058 -0.127,4.58 -3.238,-2.92 -6.781,-5.666 -10.117,-8.443 -1.392,-1.16 -2.921,-2.033 -4.478,-2.953 -0.842,-0.498 -1.672,-1.017 -2.492,-1.55 -0.003,-10e-4 -0.009,-0.005 -0.012,-0.008 0.134,-1.848 0.336,-3.697 0.515,-5.545 z m -0.598,6.877 c 1.107,0.924 2.233,1.732 2.468,1.894 3.024,2.075 5.588,4.51 8.269,7.013 1.635,1.526 3.868,4.327 6.261,5.07 -0.104,1.161 -0.203,2.321 -0.362,3.477 -0.28,-0.02 -0.545,0.066 -0.726,0.284 -2.773,-2.121 -8.161,-6.602 -8.714,-7.034 -2.403,-1.878 -4.825,-4.396 -7.488,-6.061 0.084,-1.549 0.186,-3.095 0.292,-4.643 z m -0.39,6.529 c 0.743,0.729 1.562,1.396 2.299,2.057 2.407,2.158 4.94,4.188 7.447,6.229 1.081,0.88 4.238,4.241 6.773,5.481 -0.167,0.917 -0.278,1.842 -0.488,2.754 -0.441,-0.371 -0.876,-0.752 -1.335,-1.106 -0.204,-0.158 -0.415,-0.214 -0.606,-0.2 -4.9,-3.601 -9.329,-7.809 -14.286,-11.339 0.057,-1.293 0.131,-2.584 0.196,-3.876 z m -0.603,12.986 c 1.317,0.964 2.682,1.874 4.049,2.724 1.254,0.78 3.215,2.351 4.776,1.662 0.601,-0.265 0.445,-1.091 0,-1.396 -1.288,-0.881 -2.973,-1.33 -4.355,-2.088 -1.51,-0.825 -2.942,-1.765 -4.39,-2.685 0.085,-1.903 0.17,-3.8 0.253,-5.699 4.974,3.899 9.474,8.361 14.447,12.264 -1.772,0.281 -3.038,0.485 -3.553,0.543 -3.836,0.43 -7.691,0.774 -11.56,1.059 0.128,-2.131 0.235,-4.259 0.333,-6.384 z M 101.868,99.544 c 0.001,-16.466 -0.199,-32.973 -0.838,-49.429 0.028,-0.004 0.053,0.006 0.083,10e-4 5.513,-0.998 11.042,-0.432 16.552,0.268 -1.154,27.146 -1.708,54.717 -0.03,81.826 -5.744,0.24 -11.499,0.418 -17.259,0.545 -1.284,-4.947 1.491,-29.868 1.492,-33.211 z m -12.99,30.666 c 0.201,0.925 0.348,1.859 0.578,2.779 -0.452,0.009 -0.902,0.021 -1.354,0.032 0.035,-0.294 -0.035,-0.606 -0.344,-0.82 -5.089,-3.518 -10.065,-7.039 -14.668,-11.177 -0.041,-1.592 -0.058,-3.187 -0.084,-4.779 3.743,3.311 7.639,6.453 11.263,9.89 1.198,1.136 2.857,3.188 4.609,4.075 z m -9.215,2.082 c -1.169,1.122 -4.044,-3.056 -6.414,-4.785 -0.03,-1.44 -0.069,-2.88 -0.107,-4.318 2.068,1.976 4.191,3.893 6.397,5.713 1.743,1.438 3.663,3.183 5.789,4.187 -1.387,0.035 -2.775,0.067 -4.163,0.101 0.003,-0.007 0.007,-0.01 0.009,-0.017 0.371,-0.887 -0.912,-1.456 -1.511,-0.881 z m -3.118,1.005 c -1.072,0.029 -2.151,0.044 -3.221,0.077 0.003,-1.188 -0.029,-2.373 -0.045,-3.56 0.907,0.996 1.776,2.024 2.726,2.981 0.165,0.17 0.349,0.338 0.54,0.502 z M 82.101,73.4 c 1.319,-0.05 3.146,0.052 4.728,-0.239 -0.025,1.273 -0.066,2.565 -0.099,3.848 -1.977,-1.472 -4.335,-2.652 -6.335,-3.573 0.569,-0.021 1.139,-0.014 1.706,-0.036 z m -6.58,0.136 c 1.181,0.025 2.364,-0.039 3.547,-0.073 -0.275,0.316 -0.332,0.797 0.154,1.068 1.439,0.804 2.854,1.646 4.224,2.565 1.149,0.77 2.166,1.722 3.214,2.618 -0.025,0.919 -0.045,1.832 -0.07,2.751 -1.747,-0.775 -3.557,-2.181 -5.032,-3.137 -2.3,-1.491 -4.539,-3.117 -6.635,-4.896 -0.018,-0.381 0.008,-0.766 -0.017,-1.145 0.19,0.108 0.356,0.244 0.615,0.249 z m 11.017,10.92 c -0.039,1.412 -0.072,2.811 -0.109,4.225 -0.276,0.085 -0.508,0.291 -0.532,0.629 -0.047,-0.028 -0.058,-0.052 -0.133,-0.083 -0.554,-0.234 -1.062,-0.593 -1.558,-0.926 -1.36,-0.91 -2.622,-1.982 -3.849,-3.062 -1.833,-1.611 -3.579,-3.315 -5.35,-4.993 0.038,-1.333 -0.031,-2.653 -0.057,-3.979 1.821,1.638 3.724,3.189 5.68,4.652 1.582,1.183 3.754,3.144 5.908,3.537 z M 74.903,82.085 c 2.402,2.462 4.89,4.86 7.534,7.037 0.652,0.537 2.664,1.816 3.937,1.89 -0.032,1.373 -0.078,2.742 -0.099,4.116 -1.679,-0.984 -3.473,-1.867 -5.012,-2.874 -2.302,-1.508 -4.522,-3.151 -6.668,-4.883 0.142,-1.766 0.227,-3.526 0.308,-5.286 z m -0.472,7.384 c 1.483,1.243 3.132,2.35 4.556,3.397 1.963,1.445 4.627,3.848 7.266,5.013 -0.015,1.99 -0.028,3.981 0,5.97 -4.464,-2.002 -8.271,-6.046 -12.362,-8.656 0.184,-1.905 0.369,-3.814 0.54,-5.724 z m -1.327,15.707 c 0.138,-2.874 0.388,-5.777 0.664,-8.693 2.848,1.983 5.516,4.234 8.24,6.378 1.239,0.975 2.716,2.193 4.307,2.882 0.051,2.213 0.084,4.428 0.216,6.631 -0.318,-0.242 -0.623,-0.476 -0.879,-0.647 -1.808,-1.215 -3.559,-2.517 -5.272,-3.862 -2.089,-1.641 -4.408,-3.431 -6.209,-5.353 -0.19,-0.201 -0.533,0.008 -0.459,0.268 0.892,3.131 4.222,5.429 6.686,7.438 1.794,1.462 3.657,2.841 5.554,4.164 0.226,0.157 0.481,0.353 0.738,0.546 0.139,1.799 0.303,3.594 0.516,5.382 -2.838,-1.696 -7.199,-5.28 -7.618,-5.629 -2.254,-1.875 -4.452,-3.876 -6.542,-5.965 0.024,-1.181 0.002,-2.357 0.058,-3.54 z m -0.088,5.425 c 3.863,4.086 10.378,10.401 14.521,11.97 0.186,1.336 0.349,2.676 0.585,4.004 -0.546,-0.472 -1.096,-0.941 -1.631,-1.422 -1.554,-1.4 -3.08,-2.812 -4.756,-4.065 -2.702,-2.022 -5.609,-5.375 -8.772,-7.272 -0.007,-1.071 0.045,-2.146 0.053,-3.215 z M 41.444,41.411 c 0.039,0.037 0.094,0.097 0.116,0.111 0.461,0.27 0.989,0.305 1.504,0.37 1.557,0.193 3.163,0.17 4.728,0.263 2.748,0.164 5.459,0.364 8.138,0.966 -0.097,30.274 3.617,60.713 2.278,90.874 -5.881,0.278 -11.865,0.559 -17.941,0.731 5.661,-30.306 -7.043,-63.562 1.177,-93.315 z m -15.76,30.047 c 0.104,0.017 0.207,-0.01 0.311,-0.008 0.236,1.832 0.301,3.691 0.31,5.558 -0.556,-0.329 -1.112,-0.652 -1.608,-1.013 -1.94,-1.409 -3.61,-3.155 -5.02,-5.088 1.99,0.09 3.983,0.243 6.007,0.551 z m -6.999,-0.576 c -0.061,0.129 -0.079,0.28 0.015,0.453 1.035,1.908 2.384,3.526 3.927,5.046 0.939,0.926 2.282,2.272 3.661,3.113 -0.005,0.148 0.002,0.295 -0.003,0.444 -0.202,-0.091 -0.404,-0.178 -0.605,-0.282 -1.748,-0.911 -3.356,-2.152 -4.909,-3.353 -2.264,-1.75 -4.434,-3.629 -6.569,-5.538 1.505,0.025 2.993,0.065 4.483,0.117 z M 12.257,70.73 c 0.039,10e-4 0.076,10e-4 0.115,0.002 2.645,2.815 5.402,5.513 8.389,7.971 1.348,1.109 3.41,3.081 5.415,3.635 -0.085,1.35 -0.189,2.698 -0.308,4.045 -0.889,0.072 -2.779,-1.379 -3.442,-1.789 -1.744,-1.08 -3.382,-2.335 -5.016,-3.573 -1.765,-1.338 -3.465,-2.782 -5.203,-4.17 0.039,-2.051 0.064,-4.094 0.05,-6.121 z m -0.104,8.453 c 1.85,1.704 3.89,3.27 5.731,4.748 1.591,1.276 5.211,4.853 7.822,4.407 -0.162,1.736 -0.329,3.465 -0.465,5.174 -0.075,-0.046 -0.131,-0.118 -0.224,-0.136 -2.94,-0.518 -5.619,-3.102 -7.888,-4.862 -1.674,-1.3 -3.365,-2.663 -5.146,-3.869 0.071,-1.826 0.121,-3.645 0.17,-5.462 z m -0.247,7.258 c 2.21,1.761 4.293,3.74 6.42,5.49 1.69,1.391 4.393,4.096 6.802,3.166 -0.023,0.335 -0.053,0.673 -0.072,1.006 -0.086,1.485 -0.054,2.965 -0.061,4.446 -0.471,-0.143 -0.967,0.039 -1.042,0.558 -0.112,-0.047 -0.228,-0.086 -0.337,-0.133 -0.764,-0.322 -1.481,-0.77 -2.188,-1.198 -1.707,-1.037 -3.332,-2.214 -4.948,-3.385 -1.342,-0.973 -3.079,-2.702 -4.841,-3.769 0.109,-2.064 0.178,-4.121 0.267,-6.181 z m -0.383,8.315 c 0.552,0.46 1.101,0.925 1.649,1.386 2.046,1.719 4.177,3.36 6.348,4.918 1.308,0.938 3.054,2.397 4.771,2.336 0.267,-0.011 0.472,-0.095 0.665,-0.189 0.054,2.628 0.179,5.252 0.341,7.875 -2.095,-1.452 -4.287,-2.797 -6.332,-4.309 -2.67,-1.976 -5.2,-4.122 -7.751,-6.243 0.131,-1.928 0.2,-3.846 0.309,-5.774 z m -0.426,7.482 c 2.229,2.02 4.445,4.058 6.765,5.968 2.324,1.914 4.822,4.016 7.586,5.319 0.146,2.224 0.292,4.449 0.41,6.677 -1.846,-2.169 -4.771,-3.762 -6.903,-5.645 -2.739,-2.418 -5.412,-4.914 -8.211,-7.264 0.127,-1.683 0.235,-3.37 0.353,-5.055 z m -1.492,19.107 c 2.362,2.977 5.267,5.73 7.83,8.388 1.311,1.358 2.87,3.416 4.648,4.179 0.86,0.369 2.329,0.335 2.223,-0.979 -0.047,-0.593 -0.478,-0.882 -0.924,-0.886 -0.007,-0.053 -0.142,-0.164 -0.543,-0.461 -0.667,-0.494 -1.285,-1.038 -1.9,-1.595 -1.541,-1.393 -3.009,-2.868 -4.475,-4.339 -2.128,-2.134 -4.231,-4.776 -6.653,-6.678 0.085,-0.968 0.157,-1.944 0.239,-2.913 1.92,1.954 3.865,3.873 5.899,5.727 2.338,2.132 4.864,5.229 7.881,6.378 0.812,0.31 1.558,-0.939 0.866,-1.487 -4.903,-3.872 -9.589,-8.104 -14.537,-11.95 0.159,-1.895 0.297,-3.799 0.446,-5.697 2.399,2.226 4.787,4.462 7.193,6.681 2.088,1.926 4.652,5.255 7.452,6.078 0.233,0.069 0.462,-0.018 0.662,-0.153 0.199,4.383 0.255,8.778 -0.145,13.216 -2.39,-0.04 -4.764,-0.138 -7.133,-0.251 0.115,-0.396 0.07,-0.847 -0.374,-1.153 -3.372,-2.332 -6.204,-4.861 -9.037,-7.729 0.133,-1.449 0.253,-2.922 0.382,-4.376 z m -1.103,12.289 c 0.183,-1.95 0.358,-3.957 0.54,-5.928 1.991,2.571 4.407,5.019 7.064,6.762 -2.588,-0.158 -5.163,-0.352 -7.698,-0.639 0.02,-0.078 0.087,-0.109 0.094,-0.195 z m -4.648,15.784 c 0.572,-1.615 0.283,-4.042 0.146,-5.936 1.511,1.708 3.073,3.383 4.645,5.018 0.26,0.271 0.532,0.581 0.815,0.896 -1.868,-10e-4 -3.736,0.035 -5.606,0.022 z m 8.793,-0.036 c -1.274,-0.603 -2.61,-2.089 -3.534,-2.963 -1.729,-1.636 -3.359,-3.404 -5.138,-4.99 0.09,-1.198 0.325,-2.783 0.318,-4.253 0.14,0.047 0.3,0.056 0.443,0.096 1.795,3.254 4.236,6.302 6.581,9.081 0.508,0.603 1.497,1.867 2.645,3.018 -0.439,-0.002 -0.877,0.01 -1.315,0.011 z m 5.799,-0.062 c -0.627,-0.487 -1.322,-0.909 -1.932,-1.39 -1.454,-1.145 -2.736,-2.52 -3.992,-3.87 -1.863,-2.005 -3.536,-4.139 -5.176,-6.305 1.577,0.159 3.189,0.157 4.767,0.142 1.742,3.172 4.343,6.265 6.768,9.14 0.385,0.456 1.068,1.333 1.877,2.249 -0.77,0.007 -1.541,0.029 -2.312,0.034 z m 6.11,-0.088 c -0.508,-0.456 -0.983,-0.938 -1.203,-1.14 -1.556,-1.422 -2.969,-3.007 -4.374,-4.574 -1.68,-1.877 -3.231,-4.05 -5.162,-5.624 0.37,-0.001 0.774,-0.012 1.129,-0.003 1.368,0.028 2.741,0.027 4.11,0.05 1.548,2.745 4.131,4.991 6.382,7.139 1.46,1.395 2.963,2.743 4.496,4.056 -1.791,0.026 -3.585,0.075 -5.378,0.096 z m 9.578,-0.172 c -0.524,-0.478 -1.2,-0.854 -1.751,-1.261 -1.842,-1.356 -3.588,-2.851 -5.324,-4.34 -1.641,-1.407 -3.269,-2.835 -4.868,-4.29 -0.422,-0.384 -0.995,-0.787 -1.525,-1.209 1.941,0.027 3.889,-0.021 5.832,-0.008 2.632,3.359 5.463,6.572 8.357,9.705 0.258,0.28 0.673,0.787 1.161,1.36 -0.628,0.01 -1.255,0.031 -1.882,0.043 z m 5.79,-0.134 c -1.326,-1.12 -2.612,-2.296 -3.867,-3.488 -2.542,-2.414 -4.975,-4.948 -7.395,-7.489 1.284,0.005 2.569,-0.026 3.854,-0.025 0.012,0.153 0.035,0.312 0.156,0.463 2.498,3.151 5.106,6.257 7.839,9.206 0.351,0.378 0.788,0.841 1.277,1.286 -0.622,0.014 -1.244,0.034 -1.864,0.047 z m 6.815,-0.173 c -0.223,-0.529 -0.798,-0.918 -1.396,-0.538 -1.082,0.688 -4.756,-3.562 -5.396,-4.246 -1.861,-1.99 -3.585,-4.22 -5.616,-6.059 1.956,-0.002 3.912,-0.045 5.868,-0.057 0.387,2.096 2.114,4.19 3.284,5.66 1.114,1.398 2.808,3.763 4.722,5.197 -0.488,0.015 -0.977,0.031 -1.466,0.043 z m 5.382,-0.149 c -0.022,-0.028 -0.025,-0.067 -0.051,-0.092 -1.874,-1.783 -4.028,-3.28 -5.858,-5.187 -0.931,-0.97 -3.42,-3.413 -4.392,-5.487 1.644,-0.013 3.286,-0.051 4.929,-0.069 0.608,2.629 3.516,5.197 5.16,7.038 1.145,1.281 2.358,2.503 3.596,3.696 -1.129,0.032 -2.256,0.07 -3.384,0.101 z m 6.969,-0.207 c -0.461,-0.377 -0.92,-0.82 -1.286,-1.132 -1.362,-1.162 -2.644,-2.424 -3.911,-3.688 -1.319,-1.316 -2.588,-2.681 -3.837,-4.063 -0.34,-0.378 -1.175,-1.117 -1.707,-1.771 1.725,-0.021 3.448,-0.063 5.172,-0.093 0.959,2.546 3.361,5.011 5.023,6.878 0.865,0.971 2.38,2.855 3.999,3.76 -1.151,0.036 -2.302,0.075 -3.453,0.109 z m 6.525,-0.204 c 0.375,-0.567 -0.043,-1.385 -0.776,-1.457 -0.663,-0.065 -1.768,-1.07 -2.265,-1.461 -1.158,-0.91 -2.209,-1.963 -3.235,-3.018 -1.432,-1.471 -2.712,-3.091 -4.06,-4.639 1.521,-0.028 3.036,-0.1 4.556,-0.135 1.896,2.104 3.757,4.241 5.626,6.368 1.129,1.284 2.276,2.998 3.654,4.227 -1.166,0.039 -2.333,0.079 -3.5,0.115 z m 6.344,-0.205 c -0.007,-0.019 10e-4,-0.034 -0.008,-0.053 -1.005,-2.179 -3.334,-3.892 -4.995,-5.577 -1.65,-1.674 -3.348,-3.302 -5.04,-4.936 1.743,-0.045 3.485,-0.106 5.227,-0.154 2.013,2.638 3.952,5.324 6.091,7.87 0.722,0.858 1.544,1.847 2.452,2.726 -1.241,0.041 -2.484,0.084 -3.727,0.124 z m 14.118,-0.467 c -0.192,-0.181 -0.39,-0.361 -0.55,-0.534 -1.579,-1.708 -3.066,-3.499 -4.623,-5.227 -0.562,-0.624 -4.627,-5.855 -5.883,-4.271 -0.405,0.511 0.314,1.24 0.724,0.723 -0.289,0.364 4.941,6.398 5.484,7.095 0.38,0.486 0.954,1.375 1.619,2.319 -1.114,0.037 -2.228,0.073 -3.342,0.11 -1.762,-1.556 -3.563,-3.009 -5.193,-4.757 -1.744,-1.87 -3.392,-3.834 -5.06,-5.775 0.868,-0.029 1.738,-0.038 2.604,-0.077 3.129,-0.142 6.261,-0.252 9.391,-0.375 1.735,2.959 4.488,5.436 6.875,7.875 0.698,0.714 1.602,1.755 2.611,2.741 -1.551,0.054 -3.106,0.101 -4.657,0.153 z m 8.584,-0.278 c -0.483,-0.412 -0.947,-0.86 -1.28,-1.13 -1.569,-1.271 -3.032,-2.671 -4.51,-4.043 -1.91,-1.773 -3.731,-3.847 -5.864,-5.385 1.715,-0.066 3.432,-0.124 5.148,-0.187 0.007,0.127 0.052,0.254 0.17,0.362 2.791,2.536 5.541,5.094 8.201,7.769 0.655,0.659 1.383,1.568 2.168,2.488 -1.346,0.043 -2.69,0.081 -4.033,0.126 z M 102.396,147 c -1.469,-1.348 -3.258,-2.582 -4.5,-3.743 -2.553,-2.387 -5.146,-4.922 -8.114,-6.817 1.403,-0.051 2.806,-0.104 4.209,-0.153 2.65,3.312 5.601,6.417 8.768,9.236 0.493,0.439 1.047,0.938 1.642,1.417 -0.669,0.021 -1.337,0.039 -2.005,0.06 z m 7.873,-0.235 c -0.211,-0.114 -0.457,-0.172 -0.727,-0.102 -2.173,0.562 -6.255,-3.334 -7.688,-4.507 -2.195,-1.8 -4.228,-3.836 -6.156,-5.932 2.35,-0.083 4.698,-0.179 7.05,-0.262 0.827,2.22 2.354,4.083 4.109,5.771 1.373,1.319 2.936,2.459 4.507,3.53 0.628,0.429 1.354,0.986 2.12,1.409 -1.071,0.035 -2.144,0.059 -3.215,0.093 z m 6.07,-0.17 c 0.102,-0.25 0.123,-0.529 -0.052,-0.798 -0.636,-0.975 -1.697,-1.294 -2.697,-1.838 -1.358,-0.738 -2.657,-1.579 -3.918,-2.471 -2.057,-1.455 -4.139,-3.314 -5.363,-5.582 1.414,-0.05 2.828,-0.113 4.241,-0.164 -10e-4,0.137 0.034,0.284 0.146,0.426 1.5,1.886 3.122,3.662 4.795,5.435 1.37,1.451 2.751,2.893 4.13,4.337 0.155,0.162 0.34,0.388 0.524,0.608 -0.601,0.017 -1.203,0.029 -1.806,0.047 z m 5.247,-0.138 c -0.528,-0.73 -1.391,-1.377 -1.912,-1.874 -1.429,-1.366 -2.854,-2.734 -4.292,-4.092 -1.768,-1.669 -3.551,-3.287 -5.419,-4.804 1.639,-0.061 3.277,-0.136 4.916,-0.197 -0.126,0.228 -0.15,0.505 0.103,0.72 2.501,2.131 4.914,4.318 7.287,6.596 1.03,0.987 2.255,2.432 3.595,3.549 -1.427,0.036 -2.853,0.063 -4.278,0.102 z m 7.76,-0.188 c -1.849,-1.943 -4.31,-3.476 -6.317,-5.278 -2.144,-1.925 -4.329,-4.076 -6.835,-5.553 2.172,-0.084 4.342,-0.186 6.514,-0.275 2.155,1.455 3.945,3.37 5.672,5.34 1.519,1.732 3.006,4.007 4.81,5.685 -1.281,0.027 -2.563,0.048 -3.844,0.081 z m 6.948,-0.15 c -1.946,-2.749 -4.91,-5.179 -7.26,-7.556 -1.286,-1.302 -2.665,-2.489 -4.164,-3.493 1.998,-0.086 3.993,-0.215 5.99,-0.31 1.955,2.935 4.367,5.621 6.778,8.146 0.941,0.986 2.009,2.134 3.181,3.147 -1.508,0.03 -3.017,0.033 -4.525,0.066 z m 24.811,-0.279 c -2.283,-1.78 -4.442,-3.797 -6.583,-5.711 -2.34,-2.093 -5.011,-5.044 -8.069,-6.064 -0.258,-0.086 -0.494,0.291 -0.274,0.471 2.879,2.351 5.392,5.291 8.018,7.917 0.897,0.898 1.974,2.218 3.153,3.415 -1.075,0.012 -2.149,0.01 -3.225,0.024 -1.901,-1.8 -4.155,-3.31 -6.144,-5.019 -2.503,-2.151 -4.903,-4.482 -7.607,-6.385 -0.606,-0.426 -1.271,0.5 -0.773,1.002 2.471,2.484 5.069,4.854 7.62,7.257 0.994,0.938 2.104,2.156 3.312,3.185 -1.905,0.027 -3.811,0.03 -5.716,0.063 -2.252,-1.56 -4.449,-3.107 -6.495,-5.01 -2.124,-1.977 -4.039,-4.136 -5.952,-6.304 3.731,-0.182 7.467,-0.338 11.194,-0.577 1.356,-0.087 5.427,-0.64 10.578,-1.312 1.672,3.629 5.317,6.751 8.071,9.259 0.9,0.82 2.47,2.422 4.188,3.766 -1.764,0.011 -3.529,0.008 -5.296,0.023 z m 10.443,-0.044 c -2.958,-1.762 -5.753,-3.549 -8.424,-5.8 -2.472,-2.083 -5.366,-4.57 -7.256,-7.427 1.674,-0.217 3.44,-0.442 5.248,-0.666 -0.149,0.304 -0.181,0.662 0.123,0.927 3.052,2.686 5.847,5.595 8.734,8.452 1.536,1.519 3.348,3.271 5.33,4.542 -1.251,-0.002 -2.503,-0.03 -3.755,-0.028 z m 8.004,0.061 c -0.076,-0.167 -0.148,-0.339 -0.315,-0.467 -3.113,-2.385 -6.312,-4.359 -9.203,-7.09 -2.412,-2.276 -4.751,-4.661 -7.473,-6.574 1.378,-0.168 2.773,-0.333 4.165,-0.491 -0.129,0.35 -0.099,0.768 0.302,1.039 3.803,2.574 7.065,5.71 10.366,8.879 1.574,1.511 3.208,3.199 4.953,4.726 -0.93,-0.004 -1.863,-0.015 -2.795,-0.022 z m 7.744,0.059 c -0.292,-0.006 -0.584,-0.002 -0.876,-0.007 -2.878,-2.321 -5.773,-4.584 -8.504,-7.136 -2.995,-2.799 -6.064,-5.576 -9.577,-7.714 1.65,-0.182 3.268,-0.345 4.854,-0.494 -0.104,0.248 -0.124,0.534 0.096,0.76 2.647,2.727 5.454,5.338 8.21,7.956 1.56,1.481 3.625,4.046 5.844,4.904 -0.019,0.274 -0.043,0.55 -0.062,0.825 -0.019,0.301 0.011,0.603 0.015,0.906 z m 0.428,-6.845 c -0.054,0.684 -0.1,1.368 -0.152,2.052 -1.626,-1.391 -3.513,-2.619 -5.085,-3.97 -2.626,-2.257 -5.194,-4.708 -8.032,-6.707 1.826,-0.164 3.557,-0.294 5.169,-0.389 1.467,1.294 2.933,2.589 4.354,3.933 1.26,1.191 2.363,2.989 3.835,3.903 -0.029,0.393 -0.059,0.789 -0.089,1.178 z m 0.347,-4.54 c -0.787,-0.802 -1.715,-1.514 -2.471,-2.163 -0.992,-0.852 -2.025,-1.652 -3.075,-2.434 2.783,-0.073 4.932,0.034 5.973,0.429 -0.183,1.37 -0.313,2.766 -0.427,4.168 z"
             inkscape:connector-curvature="0" />
          <path
             id="path5032"
             d="m 149.892,121.026 c 0.058,0 0.058,-0.089 0,-0.089"
             inkscape:connector-curvature="0" />
          <path
             id="path5034"
             d="m 164.626,54.771 c -3.687,5.649 -2.317,72.388 0.028,72.36 0.423,-0.005 0.744,-0.594 0.371,-0.898 -0.589,-0.481 1.992,-21.474 2.159,-24.899 0.722,-14.811 -4.365,-30.874 0.477,-45.284 0.626,-1.859 -2.044,-2.797 -3.035,-1.279 z"
             inkscape:connector-curvature="0" />
        </g>
      </g>
      <g
         id="g5036" />
      <g
         id="g5038" />
      <g
         id="g5040" />
      <g
         id="g5042" />
      <g
         id="g5044" />
      <g
         id="g5046" />
      <g
         id="g5048" />
      <g
         id="g5050" />
      <g
         id="g5052" />
      <g
         id="g5054" />
      <g
         id="g5056" />
      <g
         id="g5058" />
      <g
         id="g5060" />
      <g
         id="g5062" />
      <g
         id="g5064" />
    </g>
    <text
       xml:space="preserve"
       style="font-style:normal;font-variant:normal;font-weight:normal;font-stretch:normal;font-size:71.12268829px;line-height:100%;font-family:Anysome;-inkscape-font-specification:'Anysome, Normal';text-align:center;letter-spacing:0px;word-spacing:0px;writing-mode:lr-tb;text-anchor:middle;fill:#000000;fill-opacity:1;stroke:none;stroke-width:1px;stroke-linecap:butt;stroke-linejoin:miter;stroke-opacity:1"
       x="996.86102"
       y="-134.4523"
       id="text5233"
       sodipodi:linespacing="100%"
       inkscape:export-xdpi="38.23"
       inkscape:export-ydpi="38.23"><tspan
         id="tspan5237"
         sodipodi:role="line"
         x="996.86102"
         y="-134.4523"
         style="font-style:normal;font-variant:normal;font-weight:normal;font-stretch:normal;font-size:71.12268829px;line-height:100%;font-family:Anysome;-inkscape-font-specification:'Anysome, Normal';text-align:center;writing-mode:lr-tb;text-anchor:middle">Run more</tspan><tspan
         sodipodi:role="line"
         x="996.86102"
         y="-63.329613"
         style="font-style:normal;font-variant:normal;font-weight:normal;font-stretch:normal;font-size:71.12268829px;line-height:100%;font-family:Anysome;-inkscape-font-specification:'Anysome, Normal';text-align:center;writing-mode:lr-tb;text-anchor:middle"
         id="tspan5544">experiments!</tspan></text>
    <g
       id="g5485"
       transform="matrix(0.75331342,0,0,0.75331342,1523.4149,-1886.8257)" />
    <g
       id="g5487"
       transform="matrix(0.75331342,0,0,0.75331342,1523.4149,-1886.8257)" />
    <g
       id="g5489"
       transform="matrix(0.75331342,0,0,0.75331342,1523.4149,-1886.8257)" />
    <g
       id="g5491"
       transform="matrix(0.75331342,0,0,0.75331342,1523.4149,-1886.8257)" />
    <g
       id="g5493"
       transform="matrix(0.75331342,0,0,0.75331342,1523.4149,-1886.8257)" />
    <g
       id="g5495"
       transform="matrix(0.75331342,0,0,0.75331342,1523.4149,-1886.8257)" />
    <g
       id="g5497"
       transform="matrix(0.75331342,0,0,0.75331342,1523.4149,-1886.8257)" />
    <g
       id="g5499"
       transform="matrix(0.75331342,0,0,0.75331342,1523.4149,-1886.8257)" />
    <g
       id="g5501"
       transform="matrix(0.75331342,0,0,0.75331342,1523.4149,-1886.8257)" />
    <g
       id="g5503"
       transform="matrix(0.75331342,0,0,0.75331342,1523.4149,-1886.8257)" />
    <g
       id="g5505"
       transform="matrix(0.75331342,0,0,0.75331342,1523.4149,-1886.8257)" />
    <g
       id="g5507"
       transform="matrix(0.75331342,0,0,0.75331342,1523.4149,-1886.8257)" />
    <g
       id="g5509"
       transform="matrix(0.75331342,0,0,0.75331342,1523.4149,-1886.8257)" />
    <g
       id="g5511"
       transform="matrix(0.75331342,0,0,0.75331342,1523.4149,-1886.8257)" />
    <g
       id="g5513"
       transform="matrix(0.75331342,0,0,0.75331342,1523.4149,-1886.8257)" />
    <g
       id="g5666"
       transform="matrix(1.116945,0.27607494,-0.27607494,1.116945,838.09855,-758.07342)"
       inkscape:export-xdpi="38.23"
       inkscape:export-ydpi="38.23">
      <g
         id="g5626">
        <path
           id="path5628"
           d="m 168.722,136.957 c -5.398,-6.005 -18.321,-21.243 -28.949,-23.585 -0.186,-0.248 -0.432,-0.445 -0.737,-0.603 0.002,-0.004 0.005,-0.008 0.008,-0.011 -0.865,-0.393 -1.746,-0.745 -2.617,-1.119 21.437,-27.542 5.918,-72.16 -16.76,-93.612 C 90.862,-9.218 46.75,-3.15 20.88,24.241 -3.555,50.114 -8.229,97.337 15.903,125.014 c 19.192,22.014 67.946,36.505 90.659,11.208 16.418,16.976 67.007,76.58 81.086,40.933 5.366,-13.59 -10.933,-31.309 -18.926,-40.198 z m -9.393,-0.925 c -1.093,-0.737 -2.146,-1.448 -3.129,-2.132 -14.497,-10.073 -30.444,-18.22 -44.271,-29.238 1.244,-1.934 2.331,-3.942 3.319,-5.992 2.25,1.952 4.59,3.802 6.96,5.601 2.591,1.968 5.209,4.304 7.947,6.317 -0.015,0.098 -0.061,0.195 -0.066,0.292 -0.671,0.543 -0.675,1.715 -0.127,2.402 -0.008,0.002 -0.018,0.005 -0.025,0.007 0.022,0.024 0.055,0.038 0.078,0.062 0.072,0.081 0.149,0.151 0.238,0.212 0.172,0.983 0.92,1.752 1.902,2.168 -0.043,-0.012 -0.035,-0.006 0.034,0.021 0.014,0.006 0.024,0.017 0.039,0.021 0.018,0.008 0.036,0.014 0.055,0.021 0.081,0.036 0.173,0.078 0.285,0.148 0.224,0.143 0.367,0.264 0.594,0.456 0.291,1.172 1.256,2.246 2.652,2.396 8.34,0.882 17.51,11.084 23.515,17.238 z m -56.058,-30.984 c -0.435,0.055 -0.851,0.261 -1.097,0.661 -0.645,1.047 -1.312,2.024 -1.993,2.956 -0.346,0.369 -0.653,0.765 -1.01,1.123 -0.313,0.315 -0.526,0.65 -0.688,0.991 -10.787,12.716 -25.635,12.508 -41.438,4.018 C 36.335,103.67 26.449,80.264 36.874,58.66 46.743,38.209 68.185,31.491 87.741,38.905 c 2.081,1.192 4.146,2.37 6.178,3.54 3.097,1.782 6.041,3.776 8.932,5.845 15.45,15.115 13.646,39.668 0.42,56.758 z m 14.241,-11.91 c 2.671,1.668 5.286,3.409 7.844,5.25 2.845,2.049 5.475,4.744 8.446,6.656 -0.698,1.078 -1.451,2.128 -2.267,3.14 -1.96,-1.238 -4.007,-2.379 -5.88,-3.643 -3.367,-2.27 -6.604,-4.711 -9.872,-7.111 0.639,-1.41 1.206,-2.845 1.729,-4.292 z m 17.995,8.965 c -2.229,-2.102 -5.082,-3.755 -7.54,-5.443 -3.116,-2.142 -6.354,-4.096 -9.65,-5.945 0.901,-2.907 1.584,-5.865 1.951,-8.856 2.634,3.232 13.459,9.54 18.458,12.29 -0.797,2.776 -1.882,5.431 -3.219,7.954 z m 4.199,-12.078 c -2.839,-1.683 -5.916,-3.117 -8.724,-4.672 -2.286,-1.265 -4.562,-2.543 -6.862,-3.78 -0.688,-0.37 -1.451,-0.972 -2.209,-1.181 -0.392,-0.108 -0.601,-0.034 -0.75,0.093 -0.049,-0.114 -0.122,-0.22 -0.247,-0.286 -0.125,-0.065 -0.245,-0.126 -0.381,-0.163 -0.017,-0.005 -0.032,0.006 -0.048,0.003 0.19,-2.212 0.285,-4.425 0.183,-6.627 5.9,5.411 12.822,9.885 19.446,14.279 -0.114,0.786 -0.259,1.56 -0.408,2.334 z m 0.851,-6.495 c -6.505,-4.636 -13.908,-7.859 -20.099,-13.006 -0.361,-3.371 -1.064,-6.695 -2.165,-9.908 7.325,6.3 14.574,12.714 22.407,18.322 0.015,1.543 -0.042,3.074 -0.143,4.592 z M 115.309,22.385 c 4.858,4.067 9.326,9.52 13.14,15.756 -7.254,-6.097 -15.502,-11.494 -22.971,-16.948 -6.573,-4.8 -13.942,-10.329 -21.883,-13.405 11.337,1.886 22.34,6.752 31.714,14.597 z M 75.223,6.993 c 0.096,0.132 0.203,0.263 0.409,0.331 22.767,7.569 36.445,29.667 57.405,39.716 0.053,0.025 0.104,0.024 0.156,0.044 1.189,2.606 2.289,5.274 3.224,8.013 C 113.777,37.128 88.182,23.328 64.042,7.487 67.741,6.971 71.483,6.858 75.223,6.993 Z M 61.527,7.877 c 25.265,18.503 51.682,35.375 76.886,53.975 0.943,3.759 1.621,7.565 1.981,11.35 C 131.997,67.017 123.727,60.576 115.423,54.154 112.528,48.777 108.477,43.848 103.018,39.767 96.819,35.133 90.165,32.095 83.435,30.538 72.771,23.281 61.724,16.63 49.996,11.101 53.741,9.645 57.606,8.585 61.527,7.877 Z M 48.259,11.84 c 6.909,6.558 14.985,12.277 23.373,17.518 -3.126,0.086 -6.226,0.449 -9.254,1.17 -2.994,-2.327 -6.634,-4.024 -9.811,-6.04 -4.172,-2.646 -8.14,-5.601 -11.854,-8.858 2.439,-1.46 4.97,-2.695 7.546,-3.79 z m -9.177,4.772 c 3.391,3.357 7.082,6.351 10.915,9.195 2.595,1.925 5.403,4.184 8.369,5.87 -2.423,0.82 -4.796,1.825 -7.084,3.062 -2.301,-1.833 -4.756,-3.513 -7.018,-5.37 -3.566,-2.928 -7.077,-5.924 -10.619,-8.881 1.753,-1.414 3.578,-2.682 5.437,-3.876 z m -7.283,5.365 c 3.484,3.136 6.941,6.301 10.462,9.396 1.877,1.65 3.814,3.582 5.917,5.193 -1.064,0.686 -2.109,1.417 -3.129,2.198 -0.947,-0.725 -2.018,-1.298 -3.053,-1.973 -2.191,-1.431 -4.307,-2.977 -6.405,-4.539 -2.719,-2.022 -5.386,-4.14 -8.077,-6.187 1.376,-1.451 2.813,-2.803 4.285,-4.088 z m -6.621,6.561 c 0.277,-0.325 0.586,-0.6 0.868,-0.918 2.316,2.563 5.079,4.74 7.791,6.906 2.383,1.903 5.411,4.918 8.516,6.502 -1.465,1.298 -2.894,2.662 -4.24,4.169 -0.066,-0.3 -0.26,-0.58 -0.627,-0.774 -5.839,-3.097 -11.33,-6.403 -16.45,-10.445 1.308,-1.882 2.673,-3.713 4.142,-5.44 z m -5.084,6.774 c 4.807,4.502 10.18,8.457 16.08,11.354 0.18,0.088 0.356,0.129 0.525,0.141 -1.321,1.607 -2.595,3.289 -3.77,5.111 -0.535,0.829 -1.029,1.662 -1.499,2.497 -1.832,-1.257 -3.78,-2.381 -5.582,-3.661 -3.487,-2.478 -6.788,-5.218 -10.096,-7.926 -0.024,-0.019 -0.05,-0.022 -0.075,-0.04 1.354,-2.576 2.824,-5.078 4.417,-7.476 z m -5.516,9.534 c 4.67,4.008 9.89,9.183 15.563,12.04 -0.959,1.969 -1.766,3.95 -2.407,5.937 -5.269,-3.883 -10.668,-7.66 -16.058,-11.392 0.87,-2.243 1.848,-4.435 2.902,-6.585 z m -3.691,8.779 c 5.191,4.179 10.321,8.761 16.02,12.11 -0.518,2.1 -0.887,4.201 -1.079,6.295 -1.741,-2.998 -5.483,-5.172 -8.231,-7.059 -2.759,-1.896 -5.729,-3.445 -8.784,-4.801 0.593,-2.212 1.304,-4.389 2.074,-6.545 z m -2.476,7.991 c 2.472,1.286 4.887,2.666 7.208,4.225 3.457,2.322 5.905,5.896 9.327,8.096 0.281,0.181 0.535,0.149 0.76,0.048 -0.134,3 0.016,5.981 0.5,8.91 -2.657,-2.127 -5.589,-4.073 -8.086,-6.149 -3.681,-3.06 -7.31,-6.183 -10.957,-9.285 0.34,-1.962 0.766,-3.909 1.248,-5.845 z m -1.617,8.335 c 3.156,2.885 6.305,5.778 9.485,8.637 3.308,2.975 6.999,7.14 11.068,9.329 2.412,8.476 7.234,16.386 13.768,23.004 C 29.487,100.454 18.007,89.806 5.978,79.749 6.01,76.479 6.336,73.208 6.794,69.951 Z m 11.322,48.24 c -4.136,-5.372 -7.091,-11.278 -9.089,-17.458 6.414,7.327 15.799,13.956 21.738,19.144 7.262,6.344 14.666,12.514 22.241,18.479 1.111,0.874 2.302,1.928 3.539,3.007 C 41.042,137.691 26.497,129.08 18.116,118.191 Z m 46.39,24.609 c -3.351,-3.024 -7.68,-5.575 -10.95,-8.27 C 46.011,128.309 38.542,121.993 31.177,115.559 24.419,109.656 17.678,103.733 11.248,97.469 10.637,96.874 8.911,95.416 7.251,93.861 6.494,90.089 6.107,86.244 6.003,82.378 c 22.685,20.654 43.655,43.527 69.097,60.85 -3.494,0.155 -7.045,0.004 -10.594,-0.428 z m 15.389,0.006 c -11.653,-8.275 -22.518,-17.444 -33.153,-26.882 2.168,1.725 4.428,3.359 6.833,4.812 3.649,2.203 8.02,4 12.651,5.196 6.369,6.19 14.456,10.594 22.068,15.039 -2.72,0.842 -5.526,1.463 -8.399,1.835 z m 10.62,-2.588 c 0.205,-0.591 0.095,-1.291 -0.589,-1.728 -7.006,-4.474 -14.836,-7.183 -21.532,-12.074 3.789,0.812 7.697,1.2 11.491,1.098 3.15,1.933 6.331,3.812 9.501,5.711 2.199,1.316 4.459,3.127 6.85,4.387 -1.847,0.999 -3.749,1.884 -5.721,2.606 z m 8.58,-4.321 c -2.051,-1.795 -4.743,-2.909 -7.145,-4.143 -2.928,-1.503 -5.877,-2.967 -8.816,-4.45 2.723,-0.296 5.325,-0.914 7.75,-1.828 3.771,2.797 7.636,5.456 11.607,7.946 -1.096,0.889 -2.229,1.713 -3.396,2.475 z m 62.832,42.8 c -8.318,-4.293 -15.319,-11.26 -22.058,-17.633 -9.982,-9.44 -19.305,-21.452 -31.478,-28.327 -0.264,-1.348 -1.664,-2.33 -3.034,-1.639 -0.087,-0.041 -0.166,-0.096 -0.253,-0.136 -0.172,-0.08 -0.348,-0.114 -0.521,-0.124 -3.761,-2.098 -7.513,-4.209 -11.175,-6.478 1.538,-0.783 2.937,-1.766 4.238,-2.869 26.816,17.667 47.33,43.271 74.863,59.956 -3.853,-0.137 -7.967,-1.402 -10.582,-2.75 z m 15.808,2.021 c -28.91,-16.727 -49.447,-44.324 -78.724,-60.473 1.363,-1.396 2.562,-2.988 3.496,-4.863 0.488,-0.142 0.973,-0.4 1.424,-0.834 0.142,-0.137 0.265,-0.288 0.404,-0.426 25.296,21.127 50.597,43.448 77.478,62.523 -0.747,2.063 -2.213,3.359 -4.078,4.073 z M 105.507,112.89 c 1.926,-2.017 3.661,-4.176 5.237,-6.427 21.517,18.891 46.805,31.655 66.759,52.533 0.276,0.289 0.605,0.431 0.937,0.463 2.273,4.337 3.785,8.867 3.898,13.456 -23.609,-21.85 -50.274,-41.953 -76.831,-60.025 z"
           inkscape:connector-curvature="0" />
      </g>
      <g
         id="g5630" />
      <g
         id="g5632" />
      <g
         id="g5634" />
      <g
         id="g5636" />
      <g
         id="g5638" />
      <g
         id="g5640" />
      <g
         id="g5642" />
      <g
         id="g5644" />
      <g
         id="g5646" />
      <g
         id="g5648" />
      <g
         id="g5650" />
      <g
         id="g5652" />
      <g
         id="g5654" />
      <g
         id="g5656" />
      <g
         id="g5658" />
    </g>
    <g
       id="g5845"
       transform="matrix(1.7512773,0,0,1.7512773,184.41633,-798.08233)"
       inkscape:export-xdpi="38.23"
       inkscape:export-ydpi="38.23">
      <g
         id="g5799">
        <g
           id="g5801">
          <path
             id="path5803"
             d="m 155.131,144.894 c -9.666,0.007 -16.176,7.685 -17.958,16.786 -28.522,-12.575 -58.179,-22.363 -86.614,-35.155 1.893,-3.535 3.104,-7.296 3.376,-10.859 0.479,-6.301 -1.412,-12.885 -4.847,-18.087 23.065,-17.437 44.169,-35.877 69.062,-50.804 0.113,-0.068 0.124,-0.181 0.209,-0.264 2.1,2.506 4.761,4.513 8.071,5.733 15.898,5.856 31.402,-8.84 32.978,-23.876 C 160.932,13.808 153.052,-2.115 136.92,1.097 116.258,-6.496 105.837,27.254 116.723,44.276 104.662,47.232 93.249,57.083 83.725,64.578 71.3,74.356 59.127,84.661 47.598,95.5 41.966,88.497 33.228,84.98 23.869,90.26 -1.552,87.138 2.328,133.796 22.5,140.929 c 10.753,3.802 21.312,-3.32 27.057,-12.672 28.165,14.338 58.228,24.107 87.182,36.682 -0.115,1.673 -0.087,3.366 0.123,5.048 2.024,16.182 17.304,23.856 32.218,19.92 31.092,-8.208 10.71,-61.534 -13.949,-45.013 z M 117.279,37.711 c 0.515,0.803 0.982,1.454 1.184,1.745 1.893,2.745 4.042,5.324 6.24,7.827 0.023,0.027 0.054,0.065 0.078,0.092 -3.809,-2.053 -6.171,-5.576 -7.502,-9.664 z m 37.525,-20.62 c -1.544,-1.784 -3.221,-3.467 -4.775,-5.238 -1.859,-2.117 -3.521,-4.37 -5.157,-6.649 5.197,1.642 8.453,6.268 9.932,11.887 z M 143.385,4.726 c 3.04,5.12 7.027,10.562 11.574,14.233 0.108,0.087 0.218,0.101 0.325,0.114 0.234,1.278 0.401,2.581 0.47,3.902 -1.652,-2.877 -4.673,-5.476 -6.779,-7.985 -2.987,-3.559 -5.96,-7.168 -9.231,-10.477 1.295,-0.078 2.508,0.001 3.641,0.213 z m -9.453,-1.022 c 0.246,0.884 1.067,1.617 2.227,1.329 0.81,-0.201 1.577,-0.319 2.334,-0.417 3.526,3.824 6.614,8.054 9.766,12.185 1.603,2.099 4.103,6.952 6.909,7.555 0.253,0.054 0.467,-0.036 0.633,-0.176 0.024,1.802 -0.088,3.607 -0.361,5.36 -0.241,1.543 -0.696,3.036 -1.247,4.494 -4.907,-4.01 -8.591,-10.823 -12.158,-15.824 -3.172,-4.445 -6.213,-10.207 -10.242,-14.121 0.698,-0.146 1.392,-0.303 2.139,-0.385 z m -17.402,16.7 c 0.124,-0.618 0.309,-1.162 0.462,-1.746 2.714,6.045 6.212,11.668 10.14,17.004 3.278,4.452 7.074,9.725 11.846,12.642 0.672,0.41 1.275,-0.491 0.802,-1.039 -8.321,-9.635 -16.832,-18.188 -22.461,-29.843 0.539,-1.735 1.248,-3.265 2.058,-4.67 4.962,3.499 8.743,11.512 12.006,16.291 2.441,3.574 4.857,7.166 7.331,10.717 1.264,1.814 2.62,4.565 4.617,5.666 0.509,0.281 1.256,-0.186 1.04,-0.799 -0.88,-2.489 -3.295,-4.694 -4.845,-6.829 -2.895,-3.985 -5.705,-8.031 -8.572,-12.035 -2.882,-4.024 -6.612,-11.004 -11.235,-13.636 0.843,-1.35 1.842,-2.506 2.939,-3.535 3.675,5.855 7.936,11.46 11.937,17.071 3.661,5.134 7.71,11.96 13.128,15.362 0.557,0.349 1.321,-0.362 0.927,-0.926 -4.118,-5.876 -9.521,-11.047 -13.865,-16.822 -3.741,-4.974 -7.209,-10.578 -11.543,-15.131 1.155,-0.993 2.46,-1.792 3.853,-2.474 3.682,6.449 7.847,12.598 12.218,18.601 3.238,4.446 7.093,11.207 12.073,13.808 0.547,0.286 1.25,-0.31 0.884,-0.884 -3.464,-5.434 -8.638,-10.185 -12.567,-15.339 -4.106,-5.385 -8.047,-10.94 -11.706,-16.649 0.893,-0.377 1.831,-0.692 2.815,-0.943 3.497,6.355 8.214,12.354 12.304,18.303 2.483,3.614 6.064,10.694 10.419,13 -3.385,7.364 -10.406,13.076 -18.268,13.88 -6.166,-8.429 -13.615,-15.703 -19.324,-24.561 0.118,-1.566 0.307,-3.088 0.587,-4.484 z m 0.236,11.515 c 0.286,-0.112 0.179,-0.513 -0.127,-0.46 -0.298,0.052 -0.463,0.194 -0.653,0.317 -0.203,-1.965 -0.236,-3.945 -0.137,-5.856 2.696,4.619 5.672,9.05 8.907,13.313 2.673,3.52 5.488,7.401 8.912,10.299 -1.699,0.028 -3.422,-0.152 -5.146,-0.621 -4.204,-4.967 -14.31,-15.998 -11.756,-16.992 z m -67.922,74.905 c -1.701,-2.359 -3.591,-4.614 -5.27,-6.982 -1.718,-2.422 -3.419,-4.862 -5.221,-7.224 5.101,2.324 8.742,7.906 10.491,14.206 z M 36.847,91.977 c 1.871,2.84 3.785,5.653 5.665,8.486 2.005,3.021 3.917,6.557 6.628,9 0.112,0.101 0.243,0.129 0.371,0.144 0.194,1.058 0.369,2.119 0.454,3.179 -2.532,-2.307 -4.885,-6.218 -6.556,-8.35 -3.331,-4.247 -6.44,-8.646 -9.595,-13.02 1.059,0.047 2.061,0.264 3.033,0.561 z m -13.506,45.281 c -0.066,-0.252 -0.205,-0.489 -0.502,-0.605 -0.882,-0.344 -1.898,-1.916 -2.486,-2.608 -1.569,-1.851 -2.969,-3.855 -4.403,-5.812 -1.829,-2.494 -3.71,-4.952 -5.694,-7.323 -0.584,-2.286 -0.931,-4.652 -1.034,-7 3.724,4.547 7.507,9.05 11.289,13.55 2.867,3.412 5.805,7.421 9.297,10.338 -2.183,0.246 -4.371,0.102 -6.467,-0.54 z m 8.431,0.216 c -2.88,-4.013 -6.728,-7.584 -10.005,-11.271 -4.124,-4.644 -8.177,-9.37 -12.565,-13.77 0.002,-1.654 0.177,-3.267 0.437,-4.845 6.666,10.762 15.295,20.302 24.198,29.255 -0.686,0.227 -1.369,0.475 -2.065,0.631 z m 4.009,-1.375 c -9.345,-9.474 -18.178,-19.165 -25.872,-30.045 0.301,-1.339 0.732,-2.607 1.239,-3.822 6.095,12.303 19.003,20.769 26.755,32.006 0.188,0.274 0.447,0.36 0.709,0.367 -0.919,0.555 -1.86,1.067 -2.831,1.494 z m 3.754,-2.098 c 0.055,-0.197 0.042,-0.421 -0.104,-0.656 -7.54,-12.096 -19.554,-20.599 -27.813,-32.205 0.592,-1.209 1.327,-2.299 2.15,-3.307 4.816,6.633 9.607,13.296 14.55,19.836 3.499,4.629 7.819,12.111 13.196,14.878 -0.639,0.512 -1.297,1.002 -1.979,1.454 z m 6.204,-5.824 C 41.896,121.44 35.498,115.072 30.792,109.116 28.014,105.6 25.205,102.107 22.217,98.766 21.26,97.695 19.878,95.745 18.246,95.675 c -0.19,-0.008 -0.265,0.27 -0.097,0.359 1.759,0.93 3.424,3.768 4.646,5.267 2.996,3.673 5.852,7.464 8.706,11.247 4.043,5.358 7.894,12.534 12.913,17.21 -0.603,0.656 -1.208,1.312 -1.881,1.91 -3.646,-5.269 -8.979,-9.878 -12.996,-14.939 -5.117,-6.447 -9.956,-13.132 -15.223,-19.457 2.028,-2.236 4.643,-3.884 8.03,-4.485 3.221,5.469 6.94,10.636 10.89,15.598 4.271,5.365 8.923,11.794 14.598,15.736 0.133,0.092 0.277,0.107 0.413,0.078 -0.676,1.381 -1.524,2.716 -2.506,3.978 z m 2.919,-4.947 c -3.198,-4.676 -7.775,-8.574 -11.546,-12.802 -4.637,-5.198 -8.956,-10.65 -12.95,-16.35 0.271,-0.013 0.558,-0.093 0.851,-0.264 0.793,-0.464 1.558,-0.789 2.323,-1.117 -0.112,0.15 -0.172,0.332 -0.039,0.505 3.606,4.733 7.255,9.432 10.961,14.088 3.575,4.489 6.967,9.556 11.205,13.465 -0.214,0.836 -0.463,1.666 -0.805,2.475 z m 1.172,-4.337 c -2.917,-3.812 -6.368,-7.3 -9.467,-10.945 -4.241,-4.989 -8.254,-10.19 -12.282,-15.351 -0.073,-0.093 -0.169,-0.118 -0.265,-0.131 1.72,-0.683 3.354,-1.002 4.911,-1.068 3.079,5.514 6.989,10.684 10.766,15.722 1.383,1.844 3.884,6.291 6.563,7.793 0.012,1.357 -0.041,2.697 -0.226,3.98 z m 130.81,44.033 c -2.576,-3.055 -5.783,-5.723 -8.582,-8.539 -2.785,-2.804 -5.459,-5.688 -8.098,-8.612 8.397,-0.474 14.931,7.799 16.68,17.151 z m -39.666,8.737 c 0.569,1.067 1.175,2.066 1.644,2.89 1.473,2.59 3.341,5.754 5.506,8.433 -3.355,-2.752 -5.888,-6.626 -7.15,-11.323 z m 12.056,14.296 c 0,0 0,-0.002 -0.001,-0.003 -2.43,-3.597 -5.59,-6.719 -8.046,-10.343 -1.431,-2.108 -4.478,-6.052 -4.817,-9.239 -0.016,-0.5 0.051,-0.963 0.072,-1.448 0.031,-0.141 0.021,-0.296 0.069,-0.431 0.016,-0.042 -0.039,-0.054 -0.044,-0.09 0.072,-1.028 0.229,-2.019 0.455,-2.971 0.814,4.01 3.565,7.866 5.716,11.034 3.188,4.695 7.028,11.248 11.475,14.812 -1.689,-0.265 -3.338,-0.664 -4.879,-1.321 z m 11.832,1.263 c -0.065,0.001 -0.117,0.013 -0.181,0.033 -0.169,0.024 -0.34,0.073 -0.509,0.094 -0.516,-3.188 -6.636,-10.003 -8.916,-13.085 -2.03,-2.744 -4.132,-5.429 -6.194,-8.15 -1.562,-2.061 -6.465,-7.532 -5.265,-10.412 0.05,-0.121 -0.151,-0.205 -0.211,-0.09 -2.707,5.317 7.104,14.727 9.897,18.637 2.296,3.214 4.393,6.569 6.639,9.819 0.573,0.83 1.396,2.279 2.374,3.395 -1.341,0.064 -2.669,0.051 -3.961,-0.114 0.13,-0.087 0.215,-0.231 0.152,-0.432 -1.433,-4.576 -6.479,-8.96 -9.322,-12.691 -3.391,-4.447 -6.72,-9.236 -8.021,-14.735 0.858,-2.325 2.275,-4.31 3.99,-6.044 6.309,11.412 13.902,24.094 23.67,32.703 -1.387,0.497 -2.771,0.855 -4.142,1.072 z m 5.293,-1.515 c -7.896,-11.146 -17.077,-21.138 -24.363,-32.77 0.888,-0.833 1.926,-1.527 2.979,-2.205 1.097,5.454 5.135,10.448 8.345,14.684 4.681,6.177 9.861,12.164 15.177,17.806 0.613,0.65 1.812,-0.236 1.256,-0.969 -7.803,-10.321 -19.878,-19.423 -23.863,-32.161 0.914,-0.521 1.955,-0.891 2.973,-1.29 3.433,6.11 6.977,12.177 10.939,17.959 3.329,4.857 7.243,10.742 12.573,13.55 0.642,0.338 1.387,-0.521 0.801,-1.039 -9.827,-8.679 -16.943,-19.574 -23.587,-30.785 0.253,-0.088 0.461,-0.231 0.721,-0.312 0.491,0.615 1.301,0.917 2.174,0.327 0.768,-0.52 1.525,-0.938 2.277,-1.308 0.15,-0.021 0.294,-0.053 0.444,-0.071 0.066,-0.009 0.092,-0.074 0.15,-0.096 6.664,6.463 13.14,14.086 18.185,21.777 0.549,0.837 2.332,2.845 3.413,3.226 -1.034,5.771 -4.311,10.97 -10.594,13.677 z m 10.895,-15.998 c -0.281,-0.063 -0.573,0.062 -0.692,0.344 -0.128,-0.177 -0.253,-0.35 -0.44,-0.608 -0.551,-0.763 -1.085,-1.538 -1.62,-2.311 -1.29,-1.863 -2.774,-3.484 -4.27,-5.19 -4.575,-5.222 -8.878,-10.618 -13.92,-15.388 0.917,-0.337 1.812,-0.536 2.696,-0.669 2.315,2.911 4.744,5.744 7.229,8.496 3.264,3.614 6.561,7.779 10.446,10.73 0.153,0.117 0.327,0.146 0.494,0.116 0.15,1.494 0.19,2.996 0.077,4.48 z"
             inkscape:connector-curvature="0" />
          <path
             id="path5805"
             d="m 155.211,29.159 c -2.559,-4.041 -6.033,-7.729 -8.975,-11.507 -3.421,-4.392 -6.903,-8.733 -11.029,-12.49 -0.365,-0.333 -0.904,0.2 -0.544,0.544 4.016,3.831 7.352,8.211 10.594,12.701 2.746,3.802 5.295,8.505 8.891,11.573 0.558,0.476 1.498,-0.135 1.063,-0.821 z"
             inkscape:connector-curvature="0" />
          <path
             id="path5807"
             d="m 179.418,174.938 c -2.844,-4.167 -6.871,-7.673 -10.319,-11.332 -3.26,-3.46 -10.361,-9.345 -10.487,-14.5 -0.012,-0.443 -0.636,-0.427 -0.678,0 -0.421,4.311 4.009,8.621 6.54,11.627 4.37,5.187 9.004,10.26 13.626,15.222 0.644,0.691 1.859,-0.224 1.318,-1.017 z"
             inkscape:connector-curvature="0" />
        </g>
      </g>
      <g
         id="g5809" />
      <g
         id="g5811" />
      <g
         id="g5813" />
      <g
         id="g5815" />
      <g
         id="g5817" />
      <g
         id="g5819" />
      <g
         id="g5821" />
      <g
         id="g5823" />
      <g
         id="g5825" />
      <g
         id="g5827" />
      <g
         id="g5829" />
      <g
         id="g5831" />
      <g
         id="g5833" />
      <g
         id="g5835" />
      <g
         id="g5837" />
    </g>
    <g
       id="g6117"
       transform="translate(1437.0616,-814.86133)"
       inkscape:export-xdpi="38.23"
       inkscape:export-ydpi="38.23">
      <g
         id="g6075">
        <g
           id="g6077">
          <path
             id="path6079"
             d="M 153.424,81.841 C 162.797,67.658 155.093,45.76 138.3,40.253 119.907,34.222 95.47,43.375 88.997,62.371 68.873,38.901 25.431,66.812 36.537,92.174 17.245,84.685 2.455,103.588 0.943,122.866 c -0.012,-0.021 -0.025,-0.038 -0.037,-0.058 -0.318,-0.538 -1.148,-0.056 -0.838,0.489 0.238,0.418 0.497,0.839 0.74,1.258 -0.048,1.262 -0.045,2.522 0.027,3.773 2.125,37.235 53.237,27.168 76.999,24.288 0.706,0.812 2.276,0.566 2.209,-0.725 -0.004,-0.066 0.009,-0.13 0.006,-0.194 0.231,-0.109 0.435,-0.269 0.556,-0.503 1.065,-2.059 0.813,-4.63 0.968,-6.897 0.253,-3.716 0.505,-7.453 1.015,-11.144 -0.006,-0.001 -0.011,-0.002 -0.017,-0.002 0.023,-0.163 0.061,-0.322 0.083,-0.485 0.15,-1.122 -0.625,-1.685 -1.499,-1.725 -0.094,-0.09 -0.12,-0.211 -0.248,-0.281 -4.576,-2.513 -11.802,-2.562 -17.41,-1.465 6.032,-5.103 11.373,-10.782 16.571,-16.773 1.686,-1.943 18.385,-21.618 18.841,-20.767 7.02,13.086 14.681,27.135 23.8,39.022 -1.586,0.01 -3.26,0.276 -4.508,0.287 -4.332,0.038 -8.727,-0.039 -12.94,-1.151 -0.73,-0.193 -1.29,0.095 -1.604,0.561 -0.987,-0.429 -2.394,-0.127 -2.637,1.118 -0.57,2.9 -0.923,5.86 -1.147,8.806 -0.13,1.71 -0.419,4.684 0.481,6.567 0.02,0.302 0.017,0.608 0.043,0.909 0.08,0.919 0.661,1.432 1.318,1.582 0.13,0.067 0.219,0.176 0.391,0.197 24.563,3.092 71.287,13.008 87.408,-12.527 15.858,-25.114 -9.277,-57.731 -36.09,-55.185 z m 31.455,20.614 c -6.765,-6.726 -14.772,-12.738 -22.964,-16.975 10.564,1.41 18.53,8.248 22.964,16.975 z M 159.992,85.256 c -0.028,0.177 0.006,0.36 0.218,0.478 10.551,5.852 18.134,14.552 26.959,22.323 0.626,1.992 1.099,4.03 1.376,6.089 -10.431,-9.957 -21.01,-19.644 -32.009,-28.939 1.179,-0.051 2.33,-0.028 3.456,0.049 z m -6.956,-23.249 c -7.635,-7.406 -17.945,-11.326 -24.478,-20.07 11.501,0.507 21.507,9.569 24.478,20.07 z M 126.917,41.886 c 0.346,-0.01 0.685,0.026 1.027,0.032 -0.023,0.046 -0.091,0.047 -0.086,0.114 0.3,4.203 5.462,7.656 8.414,9.997 5.474,4.341 11.281,8.155 16.589,12.717 0.268,0.23 0.557,0.294 0.829,0.262 0.153,1.036 0.262,2.076 0.268,3.119 -4.097,-4.216 -9.802,-7.484 -14.482,-10.909 -6.329,-4.63 -12.704,-9.257 -19.274,-13.539 -0.526,-0.343 -0.968,0.468 -0.483,0.825 6.291,4.626 12.536,9.288 18.701,14.081 4.881,3.795 9.881,8.903 15.487,11.568 l 10e-4,0 c -0.083,0.913 -0.224,1.824 -0.433,2.727 -10.261,-12.458 -28.513,-18.833 -41.528,-27.803 -0.023,-0.016 -0.041,-0.002 -0.063,-0.012 4.656,-1.914 9.719,-3.031 15.033,-3.179 z m -15.568,3.426 c -0.062,0.182 -0.05,0.397 0.144,0.541 13.562,10.14 28.16,18.403 41.408,28.99 -0.609,1.768 -1.419,3.504 -2.588,5.153 -13.745,-11.141 -30.854,-19.559 -42.198,-33.189 1.044,-0.56 2.139,-1.027 3.234,-1.495 z M 29.58,94.548 c 0.015,0.025 0.004,0.053 0.023,0.077 4.759,5.944 10.138,11.375 15.538,16.733 5.211,5.171 10.022,11.14 15.55,15.94 -0.533,0.497 -1.042,1.015 -1.583,1.504 -0.171,0.155 -0.245,0.323 -0.329,0.489 C 47.497,117.528 35.167,106.49 23.881,95.181 25.708,94.707 27.614,94.48 29.58,94.548 Z M 8.339,139.923 c -2.166,-3.034 -3.523,-6.41 -4.209,-9.91 4.306,6.766 9.317,13.399 14.946,19.083 -4.009,-1.939 -7.648,-4.847 -10.737,-9.173 z m 14.962,10.82 C 16.665,142.892 9.53,135.7 3.71,127.194 c -0.158,-1.707 -0.113,-3.427 0.021,-5.144 4.929,5.158 9.309,10.781 13.742,16.373 3.504,4.419 7.296,9.904 11.959,13.631 -2.101,-0.281 -4.152,-0.7 -6.131,-1.311 z m 9.464,1.644 C 22.396,142.662 14.702,130.038 3.827,120.981 c 0.182,-1.62 0.525,-3.22 0.943,-4.797 8.291,13.256 20.018,26.338 32.287,36.301 -1.443,-0.001 -2.884,-0.005 -4.292,-0.098 z m 7.271,0.048 C 28.555,139.721 14.782,129.458 5.067,115.066 c 0.397,-1.315 0.898,-2.592 1.446,-3.844 11.881,13.364 22.487,28.938 35.696,41.092 -0.725,0.04 -1.454,0.096 -2.173,0.121 z m 4.592,-0.255 C 32.657,137.915 20.063,123.605 6.995,110.368 c -0.027,-0.027 -0.057,-0.017 -0.086,-0.036 0.61,-1.292 1.313,-2.526 2.072,-3.715 10.658,15.973 23.57,33.742 38.893,45.294 -1.083,0.095 -2.168,0.192 -3.246,0.269 z m 5.409,-0.464 c -0.026,-0.155 -0.051,-0.313 -0.18,-0.443 -14.448,-14.44 -27.685,-29.481 -40.322,-45.521 0.776,-1.137 1.625,-2.208 2.528,-3.214 9.261,10.419 19.277,20.141 28.22,30.845 4.414,5.283 9.039,14.645 15.37,17.794 -1.867,0.177 -3.741,0.361 -5.616,0.539 z m 6.513,-0.626 c 0.354,-0.262 0.525,-0.74 0.117,-1.136 -5.611,-5.422 -9.953,-12.044 -14.954,-18.004 -8.974,-10.697 -19.396,-20.002 -28.925,-30.177 0.794,-0.821 1.636,-1.577 2.511,-2.282 14.328,17.644 29.756,34.697 45.305,51.268 -1.346,0.102 -2.693,0.205 -4.054,0.331 z m 6.407,-0.484 c -0.014,-0.019 -0.004,-0.039 -0.018,-0.058 -14.853,-17.759 -30.807,-34.945 -46.951,-51.562 0.952,-0.717 1.958,-1.334 2.989,-1.896 14.019,19.327 30.436,37.155 47.965,53.357 -1.317,0.029 -2.644,0.08 -3.985,0.159 z m 15.91,-17.149 c -0.218,1.467 -0.507,2.937 -0.801,4.406 -0.587,-0.685 -1.266,-1.296 -1.918,-1.911 -1.181,-1.115 -2.359,-2.234 -3.567,-3.321 2.101,0.291 4.2,0.732 6.286,0.826 z m -8.757,-1.07 c 0.454,0.021 0.909,0.078 1.363,0.126 -0.063,0.156 -0.076,0.333 0.075,0.501 1.18,1.329 2.413,2.61 3.634,3.903 0.813,0.861 1.561,1.846 2.572,2.479 0.006,0.004 0.011,0 0.017,0.003 -0.137,0.701 -0.283,1.4 -0.404,2.102 -2.048,-1.56 -4.095,-3.107 -6.057,-4.787 -1.52,-1.3 -3.469,-2.711 -4.789,-4.325 1.192,-0.035 2.384,-0.053 3.589,-0.002 z m -4.543,0.031 c 1.013,1.847 2.856,3.371 4.351,4.775 2.235,2.101 4.592,4.331 7.195,6.011 -0.351,2.624 -0.448,5.249 0.154,7.875 -2.417,-0.416 -4.94,-0.594 -7.525,-0.635 -17.201,-17.478 -34.439,-34.732 -49.961,-53.749 1.068,-0.528 2.184,-0.937 3.321,-1.281 16.426,18.72 33.465,38.023 51.679,54.965 0.618,0.574 1.757,-0.201 1.217,-0.938 -4.275,-5.84 -9.048,-11.391 -14.057,-16.787 1.212,-0.104 2.418,-0.181 3.626,-0.236 z m -3.764,-6.176 c -3.485,-5.573 -8.95,-10.146 -13.669,-14.634 -5.791,-5.508 -11.525,-10.983 -16.872,-16.92 2.745,0.327 5.592,1.223 8.501,2.832 0.301,0.386 0.562,0.775 0.892,1.158 0.086,0.101 0.189,0.152 0.288,0.217 0.97,3.647 6.225,7.355 8.563,9.381 5.396,4.674 11.199,8.869 16.429,13.731 -1.381,1.409 -2.698,2.871 -4.132,4.235 z m 5.555,-5.693 c -4.434,-4.345 -9.606,-7.96 -14.479,-11.779 -3.912,-3.066 -7.005,-6.542 -10.389,-9.964 0.605,-0.419 0.962,-1.195 0.451,-1.892 -0.124,-0.17 -0.215,-0.341 -0.333,-0.511 0.07,-0.572 -0.127,-1.174 -0.765,-1.572 -0.139,-0.087 -0.276,-0.154 -0.415,-0.238 -0.663,-1.148 -1.165,-2.303 -1.59,-3.458 8.395,9.486 19.08,16.821 28.718,24.96 0.819,0.691 2.007,-0.468 1.188,-1.188 -10.209,-8.972 -21.4,-16.551 -30.701,-26.464 -0.582,-2.656 -0.57,-5.291 -0.105,-7.845 4.306,5.823 9.645,10.772 15.054,15.563 5.69,5.04 11.662,11.292 18.232,15.147 0.577,0.338 1.41,-0.375 0.971,-0.972 -4.11,-5.58 -11.033,-9.744 -16.338,-14.137 C 50.613,91.03 44.543,85.611 39.155,79.543 c 0.301,-1.283 0.742,-2.535 1.267,-3.762 12.057,11.534 25.065,21.956 37.115,33.505 -3.313,3.824 -6.668,7.61 -10.179,11.263 z M 78.872,107.737 C 74.707,101.792 68.321,97.07 62.806,92.592 55.507,86.667 47.947,81.058 40.9,74.828 c 0.631,-1.317 1.421,-2.571 2.276,-3.793 3.527,5.743 9.507,9.911 14.761,13.947 8.165,6.271 16.149,12.519 23.959,19.19 -1.008,1.187 -2.009,2.384 -3.024,3.565 z m 4.213,-4.967 C 78.607,97.363 72.334,93.202 66.732,89.138 58.603,83.241 50.682,77.548 43.708,70.309 c 0.942,-1.262 2.025,-2.439 3.168,-3.567 9.95,13.777 26.209,21.859 38.665,33.052 0.013,0.012 0.028,0.013 0.041,0.024 -0.831,0.985 -1.665,1.969 -2.497,2.952 z m 3.902,-4.61 C 74.5,86.568 58.993,78.817 47.574,66.053 c 1.118,-1.039 2.331,-1.988 3.588,-2.878 11.826,11.774 25.519,21.418 37.549,32.978 -0.57,0.672 -1.156,1.335 -1.724,2.007 z m 3.182,-3.706 C 78.315,82.813 64.24,73.794 52.046,62.537 c 1.083,-0.717 2.215,-1.356 3.369,-1.949 10.425,12.109 24.8,21.075 37.108,31.125 -0.78,0.917 -1.574,1.824 -2.354,2.741 z m 3.748,-4.365 C 82.586,78.767 68.103,71.054 56.353,60.102 c 2.272,-1.081 4.653,-1.889 7.064,-2.412 10.116,10.73 22.017,19.661 33.159,29.303 -0.891,1.029 -1.775,2.063 -2.659,3.096 z m 9.94,57.163 c 0.051,-0.104 0.057,-0.21 0.009,-0.309 0.283,-3.85 0.31,-7.704 0.551,-11.56 1.4,2.959 3.357,5.536 5.527,8.012 0.995,1.134 2.127,2.485 3.353,3.734 -3.152,-0.082 -6.301,-0.088 -9.44,0.123 z m 12.473,-0.005 c -1.339,-1.218 -2.811,-2.348 -4.056,-3.562 -2.977,-2.904 -5.749,-6.136 -7.774,-9.782 0.031,-0.366 0.025,-0.732 0.062,-1.099 1.073,0.36 2.165,0.627 3.263,0.853 2.106,3.31 4.835,6.162 7.706,8.824 2.058,1.907 4.884,4.963 7.862,5.162 0.572,0.037 0.734,-0.768 0.28,-1.039 -5.374,-3.223 -10.69,-7.722 -14.63,-12.737 2.364,0.393 4.763,0.576 7.17,0.663 1.348,2.667 3.331,4.982 5.377,7.148 1.971,2.085 4.366,4.951 7.151,5.932 0.437,0.153 0.883,-0.413 0.613,-0.798 -1.554,-2.217 -4.17,-3.786 -6.151,-5.612 -2.129,-1.962 -4.212,-4.139 -5.777,-6.612 0.742,0.033 1.624,0.101 2.571,0.158 0.861,1.943 3.82,4.988 4.088,5.256 2.277,2.282 4.731,4.402 7.227,6.439 0.814,0.666 1.767,1.563 2.799,2.138 -5.933,-0.492 -11.863,-1.053 -17.781,-1.332 z m 20.001,1.511 c 0.132,-0.252 0.135,-0.568 -0.103,-0.775 -2.552,-2.223 -5.409,-4.137 -8.007,-6.335 -1.721,-1.458 -3.405,-2.967 -5.013,-4.55 -0.174,-0.172 -1.29,-1.341 -2.025,-2.289 1.642,0.044 3.302,-0.062 4.479,-0.67 2.154,2.759 4.482,5.351 7.072,7.746 2.725,2.521 6.165,5.928 9.719,7.167 0.625,0.219 0.973,-0.6 0.599,-1.028 -2.489,-2.85 -6.274,-4.826 -9.187,-7.269 -2.652,-2.225 -5.065,-4.73 -7.317,-7.368 0.177,-0.306 0.23,-0.668 0.143,-1.031 0.115,-0.345 0.13,-0.724 -0.032,-1.08 -0.262,-0.577 -0.556,-1.142 -0.829,-1.714 8.182,6.028 16.883,11.508 22.949,19.763 -4.144,-0.003 -8.295,-0.247 -12.448,-0.567 z m 14.452,0.577 c -5.93,-9.82 -16.632,-15.43 -25.973,-21.885 -2.453,-4.88 -5.245,-9.628 -8.174,-14.323 11.519,13.911 28.351,25.121 41.661,35.76 -2.501,0.276 -5.006,0.4 -7.514,0.448 z m 9.503,-0.674 c -15.987,-19.467 -41.696,-28.639 -52.96,-52.627 -0.229,-0.488 -1.07,-0.136 -0.873,0.368 0.301,0.773 0.669,1.518 1.008,2.275 -2.533,-4.036 -4.988,-8.1 -7.207,-12.251 -0.379,-0.709 -1.277,-1.011 -2.043,-0.83 C 87.526,75.68 75.342,67.527 64.809,57.413 c 2.379,-0.397 4.769,-0.451 7.117,-0.197 11.994,14.618 27.394,26.258 40.216,40.214 16.26,17.698 33.643,35.048 52.013,50.578 -1.288,0.26 -2.578,0.474 -3.869,0.653 z m 5.86,-1.073 c -0.033,-0.16 -0.057,-0.323 -0.22,-0.466 C 149.332,132.533 133.031,116.909 118.09,100.634 104.05,85.342 87.157,72.81 73.434,57.422 c 5.197,0.909 10.061,3.611 13.839,8.646 -0.007,0.106 0.022,0.211 0.119,0.294 29.549,25.238 54.64,56.558 87.69,77.449 0.14,0.088 0.26,0.047 0.392,0.062 -2.682,1.589 -5.775,2.863 -9.328,3.715 z m 10.259,-4.313 c 0.135,-0.394 0.102,-0.854 -0.336,-1.154 -31.802,-21.709 -55.896,-52.07 -86.519,-75.122 0.935,-0.258 1.671,-1.125 1.28,-2.126 0.398,-0.873 0.905,-1.651 1.357,-2.478 26.702,28.762 59.287,51.124 87.343,78.495 -0.972,0.844 -1.994,1.654 -3.125,2.385 z m 4.665,-3.816 C 153.859,111.02 120.487,89.326 92.724,61.415 c 0.526,-0.9 1.144,-1.714 1.731,-2.557 15.375,15.212 31.539,29.599 48.087,43.519 13.434,11.299 28.97,20.56 41.38,32.927 0.107,0.107 0.241,0.118 0.369,0.148 -0.93,1.415 -1.997,2.76 -3.221,4.007 z m 4.01,-5.297 C 176.002,122.19 160.754,114.352 149.231,105.071 130.594,90.062 113.012,73.82 94.91,58.187 c 0.782,-1.076 1.638,-2.078 2.515,-3.056 26.868,27.579 59.831,50.582 89.573,74.979 -0.532,1.394 -1.165,2.752 -1.918,4.052 z m 2.657,-6.495 C 158.383,102.873 126.082,80.628 98.083,54.39 c 1.31,-1.386 2.742,-2.627 4.229,-3.796 0.021,0.041 0.006,0.084 0.038,0.123 11.343,13.89 25.593,24.718 39.788,35.515 9.81,7.46 19.098,15.329 28.498,23.266 1.765,1.49 14.369,14.364 17.104,13.53 -0.775,0.235 -0.661,1.5 0.196,1.451 0.165,-0.01 0.329,-0.02 0.494,-0.028 -0.186,1.083 -0.395,2.162 -0.693,3.216 z m 1.048,-6.344 C 178.642,110.122 163.861,100.188 152.069,90.987 135.162,77.795 117.586,66.015 103.263,49.854 c 1.265,-0.933 2.6,-1.764 3.967,-2.542 9.418,13.145 24.897,20.893 37.283,30.878 1.469,1.183 2.869,2.435 4.312,3.644 -0.227,0.259 -0.394,0.534 -0.638,0.788 -1.572,1.635 0.745,4.052 2.385,2.733 0.382,0.283 0.878,0.43 1.457,0.329 0.408,-0.071 0.792,-0.077 1.194,-0.133 12.008,10.382 23.422,21.36 35.575,31.588 0.074,1.398 0.086,2.797 -0.013,4.184 z"
             inkscape:connector-curvature="0" />
        </g>
      </g>
      <g
         id="g6081" />
      <g
         id="g6083" />
      <g
         id="g6085" />
      <g
         id="g6087" />
      <g
         id="g6089" />
      <g
         id="g6091" />
      <g
         id="g6093" />
      <g
         id="g6095" />
      <g
         id="g6097" />
      <g
         id="g6099" />
      <g
         id="g6101" />
      <g
         id="g6103" />
      <g
         id="g6105" />
      <g
         id="g6107" />
      <g
         id="g6109" />
    </g>
  </g>
</svg>
